<svg xmlns="http://www.w3.org/2000/svg" xmlns:xlink="http://www.w3.org/1999/xlink" width="512" zoomAndPan="magnify" viewBox="0 0 384 383.999986" height="512" preserveAspectRatio="xMidYMid meet" version="1.0"><defs><clipPath id="5b07ce211a"><path d="M 53 280 L 331 280 L 331 380.902344 L 53 380.902344 Z M 53 280 " clip-rule="nonzero"/></clipPath><clipPath id="143fb375ee"><path d="M 27.3125 2.902344 L 356.5625 2.902344 L 356.5625 380.902344 L 27.3125 380.902344 Z M 27.3125 2.902344 " clip-rule="nonzero"/></clipPath></defs><path fill="#ffffff" d="M 330.65625 302.859375 L 329.804688 304.226562 L 329.882812 304.226562 C 302.125 347.816406 256.816406 375.210938 205.5 379.402344 C 205.5 379.402344 204.339844 379.496094 203.894531 379.53125 C 202.964844 379.597656 202.039062 379.65625 201.105469 379.707031 C 200.425781 379.746094 199.742188 379.773438 199.058594 379.804688 L 198.695312 379.820312 C 197.957031 379.851562 197.21875 379.882812 196.476562 379.902344 C 195.8125 379.921875 195.148438 379.929688 194.480469 379.9375 L 193.195312 379.957031 C 192.785156 379.964844 192.375 379.976562 191.964844 379.976562 C 191.550781 379.976562 191.136719 379.964844 190.726562 379.957031 L 189.441406 379.9375 C 188.78125 379.929688 188.121094 379.921875 187.460938 379.902344 C 186.65625 379.882812 185.855469 379.847656 185.054688 379.8125 L 184.855469 379.804688 C 184.183594 379.773438 183.507812 379.746094 182.835938 379.707031 C 181.894531 379.65625 180.957031 379.597656 180.019531 379.527344 C 179.585938 379.496094 178.464844 379.40625 178.464844 379.40625 C 127.0625 375.214844 81.691406 347.753906 53.949219 304.050781 L 53.277344 302.855469 C 37.125 276.988281 28.589844 247.164062 28.589844 216.609375 C 28.589844 180.378906 40.265625 146.03125 62.355469 117.28125 L 62.800781 116.707031 L 62.328125 116.15625 C 58.847656 112.101562 49.597656 101.339844 50.65625 99.058594 C 50.828125 98.6875 51.117188 98.460938 51.542969 98.367188 C 51.679688 98.335938 51.835938 98.320312 52.007812 98.320312 C 54.527344 98.320312 59.878906 101.394531 66.6875 106.753906 L 68.035156 105.648438 C 65.808594 101.238281 58.417969 86.503906 56.792969 82.128906 C 55.734375 79.265625 56.671875 78.34375 57.125 78.082031 C 57.382812 77.929688 57.6875 77.855469 58.039062 77.855469 C 59.253906 77.855469 60.746094 78.726562 61.925781 80.132812 C 63.007812 81.417969 65.503906 84.804688 69.144531 89.925781 L 70.707031 89.089844 C 68.558594 83.414062 65.792969 76.074219 64.828125 73.324219 C 63.941406 70.800781 65.140625 69.179688 66.4375 68.5625 C 66.894531 68.34375 67.414062 68.230469 67.945312 68.230469 C 68.796875 68.230469 70.410156 68.535156 71.675781 70.570312 C 73.6875 73.820312 80.796875 85.160156 85.015625 91.878906 L 85.566406 92.757812 L 87.160156 91.402344 L 87.007812 90.851562 C 82.882812 76.074219 80.527344 66.1875 80.703125 64.402344 C 80.835938 63.035156 81.820312 62.003906 83.148438 61.835938 C 83.269531 61.820312 83.390625 61.8125 83.515625 61.8125 C 84.316406 61.8125 87.0625 62.203125 88.894531 67.214844 C 89.683594 69.378906 91.363281 73.25 93.882812 78.714844 L 94.785156 80.667969 L 95.535156 78.652344 C 97.292969 73.925781 101.195312 70.164062 105.96875 68.589844 L 106.765625 68.328125 L 106.554688 67.519531 C 106.195312 66.109375 106.011719 64.707031 106.011719 63.347656 C 106.011719 54.125 113.515625 46.621094 122.742188 46.621094 L 123.761719 46.632812 L 123.769531 45.625 C 123.675781 44.859375 123.636719 44.214844 123.636719 43.597656 C 123.636719 34.371094 131.140625 26.871094 140.363281 26.871094 C 140.65625 26.871094 140.945312 26.890625 141.234375 26.910156 L 142.3125 26.980469 L 142.410156 26.136719 C 143.398438 17.722656 150.535156 11.375 159.015625 11.375 C 161.441406 11.375 163.808594 11.902344 166.042969 12.941406 L 166.804688 13.296875 L 167.207031 12.554688 C 170.136719 7.132812 175.78125 3.765625 181.933594 3.765625 C 186.714844 3.765625 191.277344 5.832031 194.464844 9.433594 L 194.949219 9.984375 L 195.585938 9.613281 C 198.152344 8.113281 201.066406 7.320312 204.011719 7.320312 C 210.960938 7.320312 217.257812 11.703125 219.679688 18.226562 L 220.066406 19.261719 L 220.996094 18.671875 C 223.679688 16.976562 226.765625 16.078125 229.917969 16.078125 C 237.652344 16.078125 244.328125 21.328125 246.15625 28.847656 L 246.222656 29.121094 L 246.429688 29.304688 C 246.664062 29.515625 246.898438 29.722656 247.128906 29.941406 L 247.421875 30.214844 L 247.820312 30.179688 C 248.316406 30.132812 248.816406 30.101562 249.324219 30.101562 C 258.550781 30.101562 266.054688 37.605469 266.054688 46.828125 C 266.054688 49.960938 265.167969 53.03125 263.488281 55.703125 L 262.746094 56.882812 L 264.125 57.066406 C 272.375 58.183594 278.597656 65.300781 278.597656 73.625 C 278.597656 74.808594 278.464844 76.019531 278.199219 77.226562 L 278.066406 77.839844 L 278.597656 78.171875 C 326.65625 108.347656 355.347656 160.097656 355.347656 216.609375 C 355.347656 247.160156 346.808594 276.984375 330.65625 302.859375 Z M 330.65625 302.859375 " fill-opacity="1" fill-rule="nonzero"/><path fill="#959bff" d="M 310.984375 303.96875 L 263.742188 303.96875 L 249.421875 280.054688 L 173.65625 280.054688 L 173.65625 293.59375 L 200.902344 339.101562 L 193.660156 339.101562 L 193.660156 352.640625 L 166.410156 307.132812 L 166.410156 303.96875 L 152.324219 303.96875 C 139.097656 319.765625 111.640625 318.664062 94.949219 303.96875 C 93.914062 303.054688 92.914062 302.09375 91.964844 301.074219 C 80.070312 288.308594 76.359375 191.839844 76.359375 181.5625 C 76.359375 178.820312 80.078125 175.40625 85.566406 172.007812 C 90 169.261719 95.582031 166.523438 101.320312 164.15625 C 110.152344 160.511719 119.316406 157.746094 125.121094 157.15625 C 126.5 157.015625 127.683594 157.003906 128.632812 157.128906 C 145.621094 150.738281 161.09375 146.914062 167.308594 124.238281 C 168.851562 126.007812 170.535156 127.640625 172.347656 129.105469 L 172.347656 162.796875 L 192.953125 185.929688 L 211.589844 162.796875 L 211.589844 132.441406 C 213.800781 131.226562 215.910156 129.808594 217.886719 128.199219 C 228.378906 157.449219 256.839844 150.789062 280.613281 171.027344 C 301.671875 188.953125 309.03125 274.160156 310.984375 303.96875 Z M 162.847656 310.703125 C 162.367188 309.902344 161.519531 309.460938 160.652344 309.460938 C 160.203125 309.460938 159.75 309.578125 159.34375 309.824219 C 158.132812 310.550781 157.738281 312.117188 158.460938 313.328125 L 183.882812 355.808594 L 189.214844 359.71875 L 188.265625 353.179688 Z M 162.847656 310.703125 " fill-opacity="1" fill-rule="nonzero"/><g clip-path="url(#5b07ce211a)"><path fill="#ffe4cf" d="M 330.335938 303.96875 L 263.742188 303.96875 L 249.421875 280.054688 L 173.65625 280.054688 L 173.65625 293.59375 L 200.902344 339.101562 L 200.902344 325.5625 L 276.667969 325.5625 L 276.667969 339.101562 L 269.425781 339.101562 L 269.425781 352.640625 L 193.660156 352.640625 L 166.410156 307.132812 L 166.410156 303.96875 L 152.324219 303.96875 C 139.097656 319.765625 111.640625 318.664062 94.949219 303.96875 L 53.597656 303.96875 C 53.597656 303.96875 53.597656 303.972656 53.601562 303.972656 C 55.382812 306.792969 57.253906 309.550781 59.199219 312.25 C 59.28125 312.363281 59.367188 312.480469 59.449219 312.59375 C 60.324219 313.796875 61.214844 314.988281 62.117188 316.167969 C 62.234375 316.320312 62.351562 316.472656 62.46875 316.625 C 64.472656 319.210938 66.546875 321.738281 68.695312 324.199219 C 68.765625 324.28125 68.839844 324.363281 68.914062 324.445312 C 69.878906 325.542969 70.859375 326.628906 71.851562 327.703125 C 72.054688 327.917969 72.253906 328.136719 72.457031 328.351562 C 73.40625 329.367188 74.371094 330.371094 75.34375 331.363281 C 75.488281 331.507812 75.628906 331.65625 75.769531 331.800781 C 78.007812 334.054688 80.316406 336.246094 82.679688 338.371094 C 82.941406 338.609375 83.207031 338.839844 83.472656 339.074219 C 84.398438 339.898438 85.335938 340.707031 86.28125 341.507812 C 86.570312 341.753906 86.859375 342 87.152344 342.246094 C 88.273438 343.183594 89.40625 344.105469 90.554688 345.011719 C 90.625 345.070312 90.695312 345.128906 90.769531 345.1875 C 92.003906 346.160156 93.25 347.109375 94.511719 348.042969 C 94.8125 348.269531 95.117188 348.484375 95.417969 348.707031 C 96.367188 349.402344 97.324219 350.089844 98.289062 350.761719 C 98.683594 351.039062 99.082031 351.316406 99.484375 351.589844 C 100.429688 352.242188 101.386719 352.878906 102.347656 353.507812 C 102.695312 353.738281 103.042969 353.972656 103.394531 354.199219 C 104.671875 355.023438 105.960938 355.832031 107.265625 356.625 C 107.546875 356.792969 107.832031 356.957031 108.117188 357.125 C 109.148438 357.742188 110.191406 358.351562 111.238281 358.949219 C 111.71875 359.222656 112.203125 359.488281 112.6875 359.757812 C 113.574219 360.25 114.464844 360.734375 115.359375 361.207031 C 115.859375 361.476562 116.359375 361.742188 116.863281 362.003906 C 117.914062 362.546875 118.976562 363.078125 120.039062 363.597656 C 120.363281 363.757812 120.683594 363.925781 121.011719 364.082031 C 122.339844 364.722656 123.679688 365.339844 125.03125 365.945312 C 125.570312 366.1875 126.113281 366.417969 126.65625 366.65625 C 127.53125 367.039062 128.410156 367.414062 129.292969 367.78125 C 129.898438 368.03125 130.5 368.277344 131.105469 368.523438 C 131.988281 368.875 132.875 369.21875 133.761719 369.554688 C 134.332031 369.773438 134.898438 369.996094 135.46875 370.207031 C 136.828125 370.703125 138.195312 371.1875 139.570312 371.652344 C 140.140625 371.847656 140.71875 372.027344 141.292969 372.210938 C 142.191406 372.503906 143.089844 372.792969 143.996094 373.070312 C 144.671875 373.277344 145.351562 373.480469 146.03125 373.675781 C 146.859375 373.917969 147.691406 374.152344 148.523438 374.382812 C 149.210938 374.570312 149.898438 374.761719 150.59375 374.941406 C 151.539062 375.1875 152.488281 375.421875 153.441406 375.648438 C 154.382812 375.878906 155.332031 376.097656 156.28125 376.308594 C 157.304688 376.539062 158.332031 376.761719 159.363281 376.972656 C 160.089844 377.117188 160.820312 377.253906 161.550781 377.390625 C 162.367188 377.542969 163.1875 377.695312 164.007812 377.835938 C 164.769531 377.964844 165.53125 378.09375 166.292969 378.214844 C 167.128906 378.347656 167.964844 378.464844 168.800781 378.585938 C 169.535156 378.6875 170.265625 378.796875 171.003906 378.890625 C 172.429688 379.074219 173.867188 379.238281 175.304688 379.386719 C 176.046875 379.460938 176.796875 379.519531 177.542969 379.585938 C 178.386719 379.65625 179.234375 379.730469 180.082031 379.792969 C 180.878906 379.847656 181.675781 379.898438 182.476562 379.945312 C 183.296875 379.992188 184.121094 380.03125 184.945312 380.066406 C 185.738281 380.097656 186.53125 380.132812 187.328125 380.15625 C 188.285156 380.183594 189.25 380.191406 190.210938 380.203125 C 190.796875 380.207031 191.378906 380.230469 191.964844 380.230469 C 192.550781 380.230469 193.128906 380.207031 193.710938 380.203125 C 194.675781 380.191406 195.644531 380.183594 196.609375 380.15625 C 197.398438 380.132812 198.1875 380.097656 198.976562 380.066406 C 199.808594 380.03125 200.636719 379.988281 201.464844 379.941406 C 202.257812 379.898438 203.050781 379.847656 203.839844 379.792969 C 204.703125 379.730469 205.5625 379.65625 206.421875 379.582031 C 207.152344 379.519531 207.886719 379.460938 208.617188 379.386719 C 210.0625 379.238281 211.503906 379.074219 212.941406 378.890625 C 213.65625 378.800781 214.371094 378.691406 215.082031 378.589844 C 215.945312 378.46875 216.804688 378.347656 217.660156 378.210938 C 218.40625 378.09375 219.152344 377.96875 219.894531 377.839844 C 220.742188 377.695312 221.585938 377.542969 222.425781 377.382812 C 223.132812 377.25 223.84375 377.121094 224.546875 376.976562 C 225.640625 376.753906 226.730469 376.519531 227.820312 376.273438 C 228.667969 376.085938 229.515625 375.886719 230.359375 375.683594 C 231.367188 375.441406 232.371094 375.195312 233.367188 374.9375 C 234.03125 374.761719 234.695312 374.582031 235.355469 374.398438 C 236.222656 374.160156 237.085938 373.917969 237.945312 373.667969 C 238.597656 373.476562 239.253906 373.285156 239.902344 373.085938 C 240.855469 372.792969 241.800781 372.488281 242.742188 372.183594 C 243.273438 372.007812 243.808594 371.84375 244.335938 371.664062 C 245.730469 371.195312 247.113281 370.703125 248.492188 370.199219 C 249.023438 370 249.554688 369.792969 250.085938 369.59375 C 251.015625 369.238281 251.945312 368.878906 252.867188 368.507812 C 253.445312 368.277344 254.019531 368.042969 254.59375 367.804688 C 255.515625 367.421875 256.433594 367.027344 257.347656 366.628906 C 257.855469 366.410156 258.367188 366.191406 258.875 365.960938 C 260.238281 365.351562 261.597656 364.722656 262.941406 364.074219 C 263.222656 363.941406 263.492188 363.796875 263.769531 363.664062 C 264.886719 363.117188 265.992188 362.5625 267.09375 361.992188 C 267.574219 361.742188 268.050781 361.488281 268.53125 361.234375 C 269.453125 360.746094 270.367188 360.25 271.277344 359.742188 C 271.746094 359.484375 272.210938 359.226562 272.675781 358.964844 C 273.746094 358.355469 274.8125 357.730469 275.871094 357.097656 C 276.132812 356.941406 276.394531 356.792969 276.65625 356.632812 C 277.964844 355.839844 279.261719 355.027344 280.546875 354.199219 C 280.890625 353.976562 281.230469 353.746094 281.574219 353.523438 C 282.539062 352.890625 283.496094 352.25 284.445312 351.597656 C 284.851562 351.320312 285.25 351.042969 285.652344 350.761719 C 286.605469 350.09375 287.550781 349.417969 288.488281 348.730469 C 288.804688 348.5 289.121094 348.273438 289.4375 348.039062 C 290.6875 347.113281 291.921875 346.167969 293.144531 345.207031 C 293.257812 345.117188 293.367188 345.027344 293.480469 344.9375 C 294.578125 344.066406 295.664062 343.183594 296.742188 342.285156 C 297.070312 342.007812 297.398438 341.730469 297.726562 341.453125 C 298.617188 340.695312 299.5 339.933594 300.375 339.15625 C 300.6875 338.878906 301.003906 338.605469 301.3125 338.324219 C 302.390625 337.359375 303.453125 336.378906 304.503906 335.386719 C 304.570312 335.320312 304.644531 335.253906 304.714844 335.191406 C 305.851562 334.105469 306.976562 333 308.085938 331.886719 C 308.324219 331.644531 308.5625 331.398438 308.800781 331.152344 C 309.65625 330.28125 310.503906 329.398438 311.339844 328.507812 C 311.636719 328.191406 311.929688 327.875 312.222656 327.558594 C 313.0625 326.644531 313.894531 325.726562 314.714844 324.796875 C 314.925781 324.554688 315.144531 324.316406 315.355469 324.074219 C 316.386719 322.890625 317.402344 321.695312 318.402344 320.480469 C 318.511719 320.34375 318.621094 320.207031 318.734375 320.070312 C 319.597656 319.011719 320.449219 317.941406 321.285156 316.863281 C 321.554688 316.515625 321.820312 316.164062 322.089844 315.816406 C 322.789062 314.902344 323.476562 313.976562 324.160156 313.046875 C 324.417969 312.691406 324.675781 312.339844 324.933594 311.984375 C 325.773438 310.816406 326.601562 309.636719 327.410156 308.445312 C 327.46875 308.359375 327.53125 308.273438 327.589844 308.1875 C 328.453125 306.910156 329.296875 305.617188 330.125 304.3125 C 330.199219 304.199219 330.277344 304.085938 330.347656 303.972656 L 330.335938 303.972656 Z M 183.882812 355.804688 L 158.460938 313.328125 C 157.738281 312.117188 158.132812 310.550781 159.34375 309.824219 C 159.753906 309.578125 160.203125 309.460938 160.652344 309.460938 C 161.519531 309.460938 162.367188 309.902344 162.847656 310.703125 L 188.265625 353.179688 L 189.214844 359.714844 Z M 183.882812 355.804688 " fill-opacity="1" fill-rule="nonzero"/></g><path fill="#bc5331" d="M 237.363281 78.378906 C 237.808594 71.191406 237.0625 64.453125 234.5625 58.613281 C 230.210938 48.445312 220.539062 41 202.5 38.691406 C 180.867188 35.921875 169.015625 43.332031 162.917969 55.574219 C 161.011719 59.40625 159.664062 63.703125 158.761719 68.320312 C 153.597656 65.398438 145.523438 67.945312 144.476562 76.144531 C 143.3125 85.234375 148.679688 95.617188 155.933594 96.449219 C 156.671875 106.625 160.71875 116.683594 167.308594 124.242188 C 168.851562 126.011719 170.535156 127.644531 172.347656 129.109375 L 172.347656 162.796875 L 192.953125 185.929688 L 211.589844 162.796875 L 211.589844 132.441406 C 213.800781 131.226562 215.910156 129.808594 217.886719 128.199219 C 224.78125 122.601562 230.128906 114.824219 233.019531 106.3125 C 240.25 107.332031 248.058594 98.632812 249.21875 89.546875 C 250.269531 81.347656 243.097656 76.851562 237.363281 78.378906 Z M 190.746094 120.71875 C 179.535156 119.039062 177.371094 108.570312 177.371094 108.570312 C 177.371094 108.570312 182.152344 112.359375 192.554688 113.691406 C 202.957031 115.019531 208.535156 112.558594 208.535156 112.558594 C 208.535156 112.558594 204.011719 122.703125 190.746094 120.71875 Z M 117.292969 122.050781 C 117.292969 122.050781 121.113281 138.808594 125.121094 157.160156 C 119.3125 157.746094 110.152344 160.511719 101.320312 164.160156 C 95.582031 166.527344 89.996094 169.265625 85.566406 172.007812 C 84.851562 157.09375 84.480469 144.625 82.253906 140.316406 C 80.355469 136.644531 70.640625 126.207031 62.417969 116.664062 C 55.398438 108.519531 49.464844 101.023438 50.425781 98.953125 C 52.507812 94.460938 69.160156 108.429688 69.160156 108.429688 C 69.160156 108.429688 58.546875 87.597656 56.554688 82.21875 C 54.5625 76.839844 58.996094 76.257812 62.125 79.96875 C 63.800781 81.960938 68.378906 88.375 72.257812 93.890625 C 69.816406 87.476562 65.785156 76.832031 64.585938 73.410156 C 62.832031 68.394531 68.953125 65.695312 71.890625 70.4375 C 73.945312 73.753906 81.230469 85.371094 85.417969 92.042969 C 85.585938 92.023438 85.757812 92.027344 85.925781 92.015625 C 86.285156 91.992188 86.644531 91.960938 87.007812 91.960938 C 87.023438 91.960938 87.039062 91.964844 87.054688 91.964844 C 86.988281 91.722656 86.921875 91.484375 86.851562 91.234375 C 84.449219 82.632812 80.203125 66.933594 80.453125 64.382812 C 80.800781 60.84375 86.359375 59.527344 89.136719 67.132812 C 90.335938 70.40625 93.398438 77.132812 96.503906 83.726562 C 100.605469 92.449219 104.769531 100.941406 104.769531 100.941406 C 104.769531 100.941406 108.941406 76.894531 117.277344 77.601562 C 117.277344 77.601562 121.429688 97.386719 117.292969 122.050781 Z M 117.292969 122.050781 " fill-opacity="1" fill-rule="nonzero"/><g clip-path="url(#143fb375ee)"><path fill="#000000" d="M 356.242188 216.613281 C 356.242188 158.015625 325.386719 106.496094 279.074219 77.417969 C 279.339844 76.195312 279.492188 74.929688 279.492188 73.625 C 279.492188 64.699219 272.851562 57.34375 264.242188 56.183594 C 265.949219 53.46875 266.949219 50.269531 266.949219 46.832031 C 266.949219 37.097656 259.058594 29.210938 249.324219 29.210938 C 248.789062 29.210938 248.261719 29.242188 247.738281 29.289062 C 247.503906 29.066406 247.265625 28.851562 247.023438 28.640625 C 245.148438 20.921875 238.210938 15.183594 229.917969 15.183594 C 226.457031 15.183594 223.242188 16.195312 220.519531 17.917969 C 218.027344 11.210938 211.585938 6.425781 204.011719 6.425781 C 200.769531 6.425781 197.742188 7.316406 195.132812 8.839844 C 191.90625 5.1875 187.195312 2.871094 181.933594 2.871094 C 175.226562 2.871094 169.398438 6.617188 166.417969 12.128906 C 164.164062 11.085938 161.664062 10.484375 159.015625 10.484375 C 149.984375 10.484375 142.550781 17.28125 141.523438 26.035156 C 141.136719 26.007812 140.753906 25.976562 140.363281 25.976562 C 130.628906 25.976562 122.738281 33.867188 122.738281 43.597656 C 122.738281 44.324219 122.796875 45.03125 122.882812 45.734375 C 122.835938 45.734375 122.789062 45.726562 122.738281 45.726562 C 113.007812 45.726562 105.117188 53.617188 105.117188 63.347656 C 105.117188 64.867188 105.328125 66.335938 105.691406 67.742188 C 100.605469 69.417969 96.554688 73.34375 94.695312 78.34375 C 92.511719 73.601562 90.609375 69.304688 89.734375 66.910156 C 87.980469 62.113281 85.125 60.6875 83.039062 60.949219 C 81.285156 61.171875 79.988281 62.523438 79.8125 64.316406 C 79.554688 66.945312 83.71875 82.382812 86.144531 91.089844 C 86.019531 91.195312 85.898438 91.300781 85.773438 91.40625 C 81.558594 84.6875 74.445312 73.351562 72.433594 70.101562 C 70.660156 67.242188 67.882812 66.882812 66.050781 67.757812 C 64.292969 68.597656 62.972656 70.734375 63.984375 73.621094 C 64.917969 76.285156 67.582031 83.371094 69.871094 89.410156 C 66.835938 85.140625 63.898438 81.089844 62.609375 79.558594 C 60.742188 77.339844 58.242188 76.394531 56.671875 77.3125 C 56.023438 77.6875 54.65625 78.941406 55.953125 82.441406 C 57.53125 86.691406 64.300781 100.238281 67.238281 106.054688 C 63.085938 102.785156 54.808594 96.726562 51.347656 97.496094 C 50.652344 97.652344 50.132812 98.0625 49.84375 98.6875 C 48.785156 100.96875 53.542969 107.304688 61.648438 116.738281 C 40.367188 144.433594 27.695312 179.070312 27.695312 216.613281 C 27.695312 248.425781 36.796875 278.148438 52.519531 303.332031 L 52.433594 303.332031 L 53.054688 304.3125 C 80.941406 348.394531 127.097656 376.121094 178.394531 380.300781 C 178.914062 380.34375 179.433594 380.386719 179.957031 380.421875 C 180.898438 380.492188 181.839844 380.550781 182.785156 380.601562 C 183.460938 380.640625 184.140625 380.671875 184.820312 380.699219 C 185.691406 380.734375 186.5625 380.777344 187.433594 380.800781 C 188.25 380.820312 189.070312 380.828125 189.890625 380.835938 C 190.582031 380.847656 191.273438 380.871094 191.964844 380.871094 C 192.65625 380.871094 193.339844 380.847656 194.027344 380.835938 C 194.855469 380.828125 195.679688 380.820312 196.5 380.796875 C 197.367188 380.773438 198.234375 380.734375 199.097656 380.699219 C 199.785156 380.667969 200.472656 380.640625 201.15625 380.601562 C 202.09375 380.550781 203.027344 380.492188 203.957031 380.421875 C 204.496094 380.382812 205.035156 380.339844 205.574219 380.296875 C 256.847656 376.105469 302.996094 348.382812 330.886719 304.3125 L 331.507812 303.332031 L 331.417969 303.332031 C 347.140625 278.148438 356.242188 248.425781 356.242188 216.613281 Z M 164.421875 96.445312 C 164.421875 94.3125 163.972656 92.328125 163.207031 90.632812 C 163.210938 90.632812 163.214844 90.632812 163.21875 90.632812 C 166.421875 90.632812 169.355469 89.375 171.632812 87.285156 C 172.257812 88.914062 173.867188 90.199219 175.910156 90.460938 C 178.730469 90.820312 181.277344 89.097656 181.59375 86.609375 C 181.628906 86.347656 181.777344 85.183594 181.867188 84.484375 C 182.398438 84.839844 182.894531 85.230469 183.332031 85.671875 C 184.914062 87.253906 185.652344 89.171875 185.410156 91.066406 L 186.675781 91.230469 C 186.96875 88.933594 186.101562 86.640625 184.238281 84.769531 C 182.414062 82.941406 179.839844 81.734375 176.992188 81.371094 C 176.496094 81.308594 176 81.28125 175.507812 81.273438 C 175.992188 79.855469 176.277344 78.335938 176.324219 76.746094 C 183.929688 77.609375 189.90625 81.089844 189.90625 81.089844 L 190.746094 74.515625 C 187.746094 73.214844 185.035156 72.335938 182.589844 71.753906 C 186.339844 68.632812 188.730469 63.933594 188.730469 58.675781 C 188.730469 57.65625 188.625 56.660156 188.453125 55.691406 C 196.617188 55.296875 203.328125 49.363281 204.875 41.554688 C 206.699219 48.988281 213.386719 54.507812 221.378906 54.507812 C 222.011719 54.507812 222.632812 54.46875 223.246094 54.402344 C 222.890625 55.769531 222.679688 57.195312 222.679688 58.675781 C 222.679688 65.398438 226.589844 71.191406 232.25 73.953125 C 231.429688 76.082031 230.761719 78.625 230.367188 81.402344 C 229.28125 89.054688 230.628906 95.609375 233.386719 96.457031 L 232.695312 99.765625 L 233.945312 100.027344 L 234.695312 96.441406 C 237.054688 95.691406 239.453125 91.273438 240.683594 85.414062 C 242.488281 86.066406 243.917969 87.800781 243.546875 90.679688 L 244.816406 90.84375 C 245.289062 87.148438 243.285156 84.910156 240.929688 84.140625 C 240.996094 83.742188 241.066406 83.339844 241.125 82.929688 C 241.316406 81.558594 241.429688 80.226562 241.472656 78.953125 C 243.367188 79.359375 245.171875 80.339844 246.457031 81.800781 C 247.695312 83.210938 249.074219 85.683594 248.589844 89.46875 C 247.4375 98.472656 239.871094 106.636719 233.109375 105.679688 L 232.585938 105.609375 L 232.417969 106.109375 C 226.371094 123.925781 210.699219 136.367188 194.3125 136.367188 C 192.890625 136.367188 191.453125 136.277344 190.035156 136.09375 C 173.828125 134.023438 162.972656 121.234375 158.613281 107.109375 C 161.976562 105.707031 164.421875 101.464844 164.421875 96.445312 Z M 210.949219 156.5625 L 210.949219 162.570312 L 192.929688 184.941406 L 172.984375 162.554688 L 172.984375 130.484375 C 175.960938 132.71875 179.292969 134.515625 182.953125 135.757812 Z M 145.109375 76.230469 C 145.75 71.230469 149.050781 68.609375 152.496094 67.960938 C 151.25 69.894531 150.421875 72.175781 150.171875 74.652344 C 149.40625 75.425781 148.65625 76.636719 148.414062 78.507812 L 149.683594 78.667969 C 149.757812 78.078125 149.921875 77.550781 150.121094 77.0625 C 150.296875 80.464844 151.542969 83.542969 153.507812 85.910156 C 151.546875 86.828125 149.921875 88.710938 148.949219 91.152344 C 145.964844 87.125 144.457031 81.332031 145.109375 76.230469 Z M 148.023438 178.179688 C 157.015625 177.382812 164.074219 169.835938 164.074219 160.636719 C 164.074219 159.734375 163.984375 158.859375 163.855469 157.996094 C 166.886719 157.128906 169.582031 155.476562 171.707031 153.265625 L 171.707031 163.042969 L 192.980469 186.917969 L 212.226562 163.023438 L 212.226562 139.144531 C 213.867188 141.789062 216.175781 143.972656 218.933594 145.441406 C 218.667969 146.660156 218.519531 147.917969 218.519531 149.214844 C 218.519531 158.945312 226.410156 166.835938 236.140625 166.835938 C 236.171875 166.835938 236.199219 166.832031 236.230469 166.832031 C 237.089844 175.761719 244.609375 182.746094 253.765625 182.746094 C 255.644531 182.746094 257.453125 182.445312 259.152344 181.902344 C 261.8125 183.511719 264.917969 184.457031 268.257812 184.457031 C 274.921875 184.457031 280.714844 180.757812 283.710938 175.304688 C 301.652344 198.785156 308.363281 274.753906 310.289062 303.332031 L 269.671875 303.332031 L 269.671875 275.847656 C 271.554688 273.726562 287.261719 254.710938 276.464844 223.769531 L 275.257812 224.1875 C 286.402344 256.121094 268.753906 274.972656 268.574219 275.160156 L 268.394531 275.347656 L 268.394531 303.332031 L 264.101562 303.332031 L 249.96875 279.726562 L 249.421875 279.414062 L 173.65625 279.414062 L 173.019531 280.054688 L 173.019531 292.953125 L 166.410156 292.953125 L 165.773438 293.59375 L 165.773438 303.332031 L 153.640625 303.332031 C 159.035156 296.261719 161.339844 286.699219 160.304688 275.46875 C 157.699219 247.214844 149.5 210.433594 142.109375 185.390625 C 144.675781 183.570312 146.730469 181.085938 148.023438 178.179688 Z M 167.539062 294.234375 L 173.292969 294.234375 L 199.777344 338.464844 L 194.019531 338.464844 Z M 193.019531 339.277344 L 193.019531 350.332031 L 167.050781 306.957031 L 167.050781 295.902344 Z M 174.296875 293.417969 L 174.296875 282.363281 L 200.265625 325.738281 L 200.265625 336.792969 Z M 194.300781 339.742188 L 268.789062 339.742188 L 268.789062 352 L 194.300781 352 Z M 268.296875 338.464844 L 201.542969 338.464844 L 201.542969 326.199219 L 276.03125 326.199219 L 276.03125 338.464844 Z M 201.265625 324.921875 L 174.78125 280.691406 L 249.058594 280.691406 L 275.542969 324.921875 Z M 130.128906 158.261719 C 136.210938 162.679688 154.941406 231.253906 159.03125 275.585938 C 160.136719 287.542969 157.371094 297.535156 151.039062 304.476562 C 144.980469 311.117188 135.914062 314.773438 125.507812 314.773438 C 125.507812 314.773438 125.503906 314.773438 125.503906 314.773438 C 113.039062 314.773438 100.675781 309.492188 92.429688 300.644531 C 81.246094 288.636719 76.996094 196.773438 76.996094 181.5625 C 76.996094 177.570312 86.871094 170.816406 101.566406 164.75 C 111.972656 160.453125 122.039062 157.675781 127.207031 157.675781 C 128.957031 157.675781 129.765625 157.996094 130.128906 158.261719 Z M 101.550781 94.316406 Z M 65.1875 73.199219 C 64.386719 70.914062 65.449219 69.460938 66.597656 68.910156 C 67.984375 68.25 69.984375 68.570312 71.347656 70.773438 C 73.945312 74.96875 85.039062 92.640625 87.433594 96.457031 L 78.609375 101.875 C 77.75 100.632812 75.453125 97.328125 72.824219 93.585938 C 70.378906 87.15625 66.375 76.582031 65.1875 73.199219 Z M 86.148438 92.003906 C 86.230469 92 86.3125 91.996094 86.398438 91.992188 C 86.46875 92.246094 86.535156 92.488281 86.605469 92.730469 C 86.457031 92.496094 86.304688 92.253906 86.148438 92.003906 Z M 57.152344 81.992188 C 56.488281 80.199219 56.546875 78.859375 57.316406 78.414062 C 58.191406 77.898438 60.046875 78.496094 61.632812 80.378906 C 64.40625 83.671875 75.324219 99.378906 77.519531 102.542969 L 69.414062 107.519531 C 67.644531 104.03125 58.917969 86.757812 57.152344 81.992188 Z M 51.003906 99.222656 C 51.125 98.957031 51.316406 98.8125 51.628906 98.742188 C 54.847656 98.011719 65.082031 105.84375 68.746094 108.917969 L 69.222656 108.542969 L 69.488281 108.972656 L 96.324219 92.5 L 95.65625 91.410156 L 88.757812 95.644531 C 86.277344 86.972656 80.820312 67.132812 81.085938 64.441406 C 81.203125 63.253906 82.050781 62.359375 83.199219 62.214844 C 84.800781 62.011719 87.039062 63.253906 88.535156 67.347656 C 90.386719 72.410156 96.738281 85.796875 100.761719 94.148438 C 98.414062 96.210938 86.640625 107.695312 93.695312 124.660156 L 94.878906 124.167969 C 88.273438 108.289062 98.625 97.738281 101.335938 95.335938 C 103.003906 98.789062 104.15625 101.140625 104.195312 101.21875 L 105.398438 101.046875 C 106.5 94.683594 110.644531 78.53125 116.746094 78.226562 C 117.339844 81.441406 120.371094 99.816406 116.664062 121.941406 L 116.671875 122.191406 C 116.738281 122.492188 120.429688 138.703125 124.34375 156.609375 C 118.648438 157.328125 109.972656 159.898438 101.078125 163.570312 C 95.902344 165.707031 90.578125 168.257812 86.152344 170.910156 C 86.101562 169.878906 86.054688 168.847656 86.007812 167.839844 C 85.390625 154.550781 84.902344 144.050781 82.820312 140.023438 C 81.410156 137.289062 76.046875 131.210938 69.835938 124.171875 C 61.902344 115.175781 49.910156 101.582031 51.003906 99.222656 Z M 28.972656 216.613281 C 28.972656 179.457031 41.480469 145.171875 62.5 117.726562 C 64.457031 119.992188 66.589844 122.425781 68.878906 125.019531 C 74.773438 131.703125 80.347656 138.015625 81.683594 140.609375 C 83.640625 144.390625 84.144531 155.285156 84.730469 167.898438 C 84.789062 169.136719 84.847656 170.394531 84.910156 171.671875 C 79.503906 175.070312 75.71875 178.582031 75.71875 181.566406 C 75.71875 191.59375 79.355469 288.484375 91.496094 301.511719 C 92.078125 302.140625 92.683594 302.742188 93.304688 303.332031 L 54.023438 303.332031 C 38.164062 278.199219 28.972656 248.460938 28.972656 216.613281 Z M 191.964844 379.589844 C 136.140625 379.589844 84.9375 351.585938 54.757812 304.609375 L 94.707031 304.609375 C 103.015625 311.832031 114.21875 316.050781 125.503906 316.050781 C 125.507812 316.050781 125.507812 316.050781 125.507812 316.050781 C 136.277344 316.050781 145.679688 312.246094 151.980469 305.339844 C 152.199219 305.101562 152.398438 304.851562 152.605469 304.609375 L 165.773438 304.609375 L 165.773438 310.964844 L 165.863281 311.292969 L 193.113281 356.804688 L 193.660156 357.113281 L 269.425781 357.113281 L 270.066406 356.476562 L 270.066406 339.742188 L 276.671875 339.742188 L 277.308594 339.101562 L 277.308594 325.5625 L 277.21875 325.234375 L 264.871094 304.609375 L 329.183594 304.609375 C 298.992188 351.585938 247.785156 379.589844 191.964844 379.589844 Z M 329.910156 303.332031 L 311.597656 303.332031 C 309.722656 274.441406 303.070312 197.550781 284.339844 174.023438 C 285.324219 171.828125 285.882812 169.398438 285.882812 166.835938 C 285.882812 164.207031 285.289062 161.722656 284.257812 159.484375 C 288.902344 156.308594 291.949219 150.976562 291.949219 144.929688 C 291.949219 139.425781 289.421875 134.511719 285.46875 131.28125 C 287.683594 128.332031 289.015625 124.679688 289.015625 120.710938 C 289.015625 115.765625 286.972656 111.304688 283.691406 108.105469 C 285.085938 105.585938 285.882812 102.6875 285.882812 99.605469 C 285.882812 92.726562 281.929688 86.78125 276.179688 83.878906 C 277.296875 82.328125 278.171875 80.589844 278.738281 78.714844 C 324.5 107.605469 354.960938 158.613281 354.964844 216.613281 C 354.964844 248.460938 345.769531 278.199219 329.910156 303.332031 Z M 189.238281 364.1875 L 189.238281 363.945312 Z M 190.652344 121.347656 C 191.828125 121.523438 192.984375 121.613281 194.089844 121.613281 L 194.09375 121.613281 C 205.074219 121.613281 209.078125 112.90625 209.121094 112.816406 L 209.789062 111.3125 L 208.28125 111.972656 C 208.246094 111.988281 204.839844 113.445312 198.53125 113.445312 C 196.636719 113.445312 194.65625 113.3125 192.636719 113.054688 C 182.5625 111.769531 177.816406 108.105469 177.769531 108.070312 L 176.394531 106.984375 L 176.746094 108.699219 C 176.769531 108.808594 179.132812 119.621094 190.652344 121.347656 Z M 192.472656 114.324219 C 194.542969 114.589844 196.582031 114.722656 198.527344 114.722656 C 202.59375 114.722656 205.488281 114.148438 207.148438 113.691406 C 205.601562 115.996094 201.6875 120.335938 194.089844 120.335938 C 193.046875 120.335938 191.953125 120.25 190.839844 120.082031 C 182.734375 118.871094 179.570312 112.964844 178.488281 110.054688 C 180.660156 111.300781 185.210938 113.394531 192.472656 114.324219 Z M 188.660156 105.429688 C 188.007812 104.039062 188.285156 102.21875 189.417969 100.433594 L 195.179688 91.347656 L 196.257812 92.03125 L 190.496094 101.117188 C 189.601562 102.527344 189.355469 103.898438 189.820312 104.886719 C 190.164062 105.625 190.890625 106.082031 191.910156 106.210938 L 197.203125 106.890625 L 197.042969 108.15625 L 191.746094 107.480469 C 190.292969 107.292969 189.195312 106.566406 188.660156 105.429688 Z M 204.011719 82.894531 L 204.851562 76.316406 C 223.886719 73.367188 229.917969 81.695312 229.917969 81.695312 L 229.324219 86.335938 C 218.75 78.757812 204.011719 82.894531 204.011719 82.894531 Z M 226.121094 96.277344 L 224.855469 96.113281 C 225.175781 93.589844 223.742188 91.148438 221.3125 89.527344 C 221.222656 90.222656 221.074219 91.390625 221.039062 91.65625 C 220.722656 94.144531 218.175781 95.867188 215.355469 95.503906 C 212.53125 95.144531 210.503906 92.835938 210.820312 90.351562 C 210.855469 90.078125 211.015625 88.832031 211.101562 88.144531 C 210.4375 88.363281 209.804688 88.640625 209.21875 88.984375 C 207.289062 90.117188 206.09375 91.789062 205.851562 93.683594 L 204.582031 93.519531 C 204.878906 91.222656 206.292969 89.222656 208.574219 87.882812 C 210.796875 86.574219 213.585938 86.054688 216.4375 86.417969 C 222.375 87.175781 226.71875 91.601562 226.121094 96.277344 Z M 198.144531 342.976562 L 264.941406 342.976562 L 264.941406 344.253906 L 198.144531 344.253906 Z M 198.144531 347.488281 L 264.941406 347.488281 L 264.941406 348.765625 L 198.144531 348.765625 Z M 205.390625 329.4375 L 272.1875 329.4375 L 272.1875 330.714844 L 205.390625 330.714844 Z M 205.390625 333.949219 L 272.1875 333.949219 L 272.1875 335.226562 L 205.390625 335.226562 Z M 188.894531 353.085938 L 188.808594 352.851562 L 163.394531 310.371094 C 162.523438 308.921875 160.46875 308.398438 159.011719 309.273438 C 158.28125 309.710938 157.761719 310.40625 157.554688 311.234375 C 157.347656 312.0625 157.472656 312.921875 157.910156 313.652344 L 158.085938 313.945312 C 157.839844 314.277344 157.65625 314.65625 157.554688 315.070312 C 157.347656 315.894531 157.472656 316.753906 157.910156 317.488281 L 183.328125 359.964844 L 188.835938 364.0625 L 189.234375 363.824219 L 189.238281 363.945312 L 189.238281 363.820312 L 189.84375 363.453125 L 189.332031 359.929688 L 189.84375 359.621094 Z M 183.804688 354.4375 L 159.007812 313 C 158.746094 312.5625 158.667969 312.046875 158.792969 311.550781 C 158.917969 311.050781 159.230469 310.632812 159.667969 310.371094 C 160.554688 309.839844 161.769531 310.152344 162.296875 311.03125 L 187.027344 352.359375 C 185.921875 352.558594 184.609375 353.152344 183.804688 354.4375 Z M 184.65625 355.585938 C 185.316406 353.976562 186.917969 353.628906 187.671875 353.566406 L 188.363281 358.300781 Z M 248.964844 304.421875 L 255.136719 314.734375 L 214.121094 314.734375 L 207.949219 304.421875 Z M 248.964844 304.421875 " fill-opacity="1" fill-rule="nonzero"/></g></svg>