<svg xmlns="http://www.w3.org/2000/svg" xmlns:xlink="http://www.w3.org/1999/xlink" width="600" zoomAndPan="magnify" viewBox="0 0 450 449.999984" height="600" preserveAspectRatio="xMidYMid meet" version="1.0"><path fill="#403934" d="M 296.753906 352.695312 C 311.390625 344.601562 324.941406 368.257812 320.734375 371.066406 C 316.523438 373.863281 308.273438 383.363281 308.273438 383.363281 C 306.09375 397.683594 308.117188 416.914062 308.117188 416.914062 C 327.429688 431.164062 325.242188 437.527344 308.117188 443.753906 C 290.992188 449.980469 280.242188 433.796875 270.746094 427.570312 C 261.25 421.339844 264.371094 416.832031 266.847656 409.1875 C 269.335938 401.550781 265.914062 388.675781 265.914062 388.675781 C 263.117188 356.617188 282.117188 360.785156 296.753906 352.695312 Z M 296.753906 352.695312 " fill-opacity="1" fill-rule="nonzero"/><path fill="#000000" d="M 299.921875 422.457031 C 299.984375 422.484375 300.039062 422.492188 300.101562 422.492188 C 300.257812 422.492188 300.40625 422.421875 300.496094 422.273438 C 300.523438 422.238281 303.113281 418.167969 308.199219 417.355469 C 308.246094 417.34375 308.28125 417.328125 308.316406 417.308594 C 308.328125 417.300781 308.347656 417.300781 308.355469 417.289062 C 308.417969 417.253906 308.464844 417.199219 308.511719 417.144531 C 308.511719 417.132812 308.519531 417.132812 308.519531 417.132812 C 308.527344 417.117188 308.527344 417.097656 308.539062 417.070312 C 308.546875 417.042969 308.566406 417.015625 308.566406 416.980469 C 308.574219 416.953125 308.574219 416.914062 308.566406 416.886719 C 308.566406 416.871094 308.574219 416.84375 308.566406 416.824219 C 308.566406 416.816406 308.554688 416.816406 308.554688 416.804688 C 308.546875 416.777344 308.539062 416.75 308.519531 416.722656 C 308.511719 416.695312 308.5 416.667969 308.484375 416.640625 C 308.464844 416.621094 308.445312 416.605469 308.429688 416.585938 C 308.402344 416.558594 308.382812 416.539062 308.355469 416.523438 C 308.347656 416.523438 308.347656 416.511719 308.335938 416.511719 C 301.15625 412.234375 296.773438 407.332031 294.101562 402.769531 C 294.09375 402.613281 294.019531 402.476562 293.890625 402.402344 C 289.160156 394.0625 290.105469 386.921875 290.113281 386.8125 C 290.148438 386.566406 289.976562 386.328125 289.730469 386.289062 C 289.480469 386.253906 289.242188 386.425781 289.207031 386.675781 C 289.1875 386.785156 288.238281 393.898438 292.773438 402.285156 C 290.890625 402.273438 286.574219 402.742188 283.699219 406.910156 C 283.589844 407.066406 283.589844 407.277344 283.710938 407.433594 C 284.066406 407.90625 292.023438 418.9375 299.921875 422.457031 Z M 293.324219 403.207031 C 295.941406 407.6875 300.167969 412.460938 306.925781 416.695312 C 302.949219 417.730469 300.652344 420.492188 299.949219 421.460938 C 293.050781 418.1875 285.921875 408.851562 284.667969 407.167969 C 287.679688 403.0625 292.144531 403.117188 293.324219 403.207031 Z M 321.648438 431.582031 C 321.582031 431.683594 315.765625 440.671875 302.683594 440.671875 C 301.464844 440.671875 300.183594 440.597656 298.839844 440.425781 C 283.140625 438.441406 266.082031 415.050781 265.359375 414.054688 C 265.210938 413.851562 265.257812 413.558594 265.457031 413.414062 C 265.660156 413.265625 265.953125 413.3125 266.097656 413.511719 C 266.273438 413.75 283.644531 437.574219 298.949219 439.511719 C 314.136719 441.429688 320.796875 431.191406 320.871094 431.089844 C 321.007812 430.878906 321.289062 430.816406 321.5 430.941406 C 321.71875 431.089844 321.785156 431.371094 321.648438 431.582031 Z M 299.535156 402.804688 C 297.789062 391.273438 301.621094 379.597656 301.660156 379.476562 C 301.714844 379.320312 301.832031 379.210938 301.988281 379.175781 C 302.144531 379.140625 302.308594 379.183594 302.417969 379.304688 C 305.078125 382.066406 307.652344 382.496094 307.667969 382.496094 C 307.914062 382.53125 308.089844 382.769531 308.054688 383.015625 C 308.015625 383.261719 307.777344 383.4375 307.53125 383.402344 C 307.421875 383.382812 304.988281 383 302.296875 380.472656 C 301.519531 383.144531 298.988281 392.902344 300.414062 402.558594 C 300.734375 402.980469 302.574219 405.15625 307 405.660156 C 307.246094 405.6875 307.429688 405.914062 307.402344 406.160156 C 307.375 406.390625 307.175781 406.5625 306.945312 406.5625 C 306.925781 406.5625 306.910156 406.5625 306.890625 406.5625 C 301.539062 405.949219 299.664062 403.097656 299.589844 402.980469 C 299.5625 402.925781 299.546875 402.871094 299.535156 402.804688 Z M 299.535156 402.804688 " fill-opacity="1" fill-rule="nonzero"/><path fill="#f6416c" d="M 349.886719 194.320312 C 349.238281 195.363281 348.535156 196.421875 347.773438 197.503906 C 342.542969 204.945312 338.214844 209.300781 334.867188 211.273438 C 330.730469 206.007812 328.144531 202.988281 328.144531 202.988281 L 327.300781 199.542969 C 327.300781 199.542969 327.292969 199.542969 327.300781 199.53125 C 327.402344 199.019531 327.519531 198.5 327.65625 197.96875 C 327.804688 197.382812 327.949219 196.816406 328.105469 196.257812 C 329.394531 191.503906 330.8125 187.472656 332.148438 184.199219 C 334.886719 177.457031 337.234375 173.929688 337.234375 173.929688 L 330.933594 154.550781 L 327.742188 178.984375 L 325.835938 193.589844 L 267.023438 177.429688 L 259.921875 147.417969 L 248.480469 172.757812 C 255.871094 177.164062 262.203125 186.902344 266.371094 194.695312 C 266.472656 194.878906 266.574219 195.070312 266.675781 195.253906 C 266.847656 195.589844 267.023438 195.929688 267.195312 196.257812 C 270.023438 201.738281 271.660156 205.914062 271.660156 205.914062 C 273.894531 208.109375 275.804688 210.175781 277.433594 212.132812 C 275.925781 217.152344 271.523438 229.835938 263.609375 237.015625 C 259.347656 230.375 259.21875 215.773438 259.21875 215.773438 C 259.21875 215.773438 258.488281 215.097656 257.253906 213.945312 C 255.761719 212.546875 253.527344 210.433594 250.941406 207.9375 C 242.046875 199.351562 228.972656 186.199219 227.457031 181.628906 C 225.125 174.621094 230.960938 139.609375 239.367188 121.628906 C 247.773438 103.652344 279.746094 93.394531 279.746094 93.394531 L 298.710938 94.542969 C 322.5625 98.046875 336.980469 104.347656 344.710938 129.566406 C 352.128906 153.765625 365.53125 169.363281 349.886719 194.320312 Z M 349.886719 194.320312 " fill-opacity="1" fill-rule="nonzero"/><path fill="#000000" d="M 297.292969 84.277344 C 286.199219 79.722656 279.546875 86.890625 269.382812 86.5625 C 259.21875 86.234375 253.929688 77.117188 253.929688 77.117188 C 260.234375 73.0625 267.085938 59.53125 267.085938 59.53125 C 295.390625 37.8125 308.390625 88.820312 297.292969 84.277344 Z M 344.4375 86.9375 C 346.175781 87.328125 347.828125 85.957031 347.773438 84.183594 C 347.710938 81.953125 344.757812 79.101562 342.433594 74.125 C 337.527344 63.617188 337.710938 58.542969 337.710938 58.542969 C 337.710938 58.542969 332.222656 37.582031 319.023438 48.328125 C 305.820312 59.074219 303.605469 87.660156 303.605469 87.660156 C 303.605469 87.660156 310.613281 93.851562 318.089844 90.695312 C 324.996094 87.777344 333.503906 84.46875 344.4375 86.9375 Z M 344.4375 86.9375 " fill-opacity="1" fill-rule="nonzero"/><path fill="#d68f72" d="M 323.386719 58.351562 C 323.386719 58.835938 323.375 59.320312 323.347656 59.804688 C 323.359375 59.8125 323.359375 59.832031 323.347656 59.851562 C 322.773438 72.5625 314.949219 84.851562 304.878906 86.882812 C 304.878906 86.882812 304.878906 86.882812 304.878906 86.890625 C 304.878906 87.933594 304.90625 88.902344 304.953125 89.789062 C 305.328125 96.136719 306.871094 98.742188 306.871094 98.742188 C 296.597656 112.285156 277.324219 96.875 277.324219 96.875 C 280.984375 93.382812 281.960938 86.414062 282.21875 82.5 C 282.328125 80.792969 282.300781 79.65625 282.300781 79.65625 C 279.199219 77.0625 277.066406 73.898438 275.75 70.082031 C 272.199219 71.65625 267.542969 69.351562 265.183594 64.789062 C 262.757812 60.089844 263.691406 54.785156 267.269531 52.9375 C 269.4375 51.8125 272.082031 52.234375 274.367188 53.769531 C 276.261719 40.21875 286.433594 29.867188 298.722656 29.867188 C 312.34375 29.875 323.386719 42.621094 323.386719 58.351562 Z M 323.386719 58.351562 " fill-opacity="1" fill-rule="nonzero"/><path fill="#000000" d="M 337.703125 58.535156 C 337.703125 58.535156 334.078125 53.6875 326.84375 54.273438 C 319.605469 54.859375 312.601562 49.371094 305.179688 38.515625 C 297.769531 27.660156 288.730469 33.613281 288.730469 33.613281 C 288.730469 33.613281 279.894531 62.027344 268.898438 52.40625 C 257.902344 42.796875 269.96875 20.847656 284.917969 22.285156 C 307.109375 -0.0078125 321.59375 27.304688 335.597656 35.589844 C 349.605469 43.875 337.703125 58.535156 337.703125 58.535156 Z M 337.703125 58.535156 " fill-opacity="1" fill-rule="nonzero"/><path fill="#7fb39c" d="M 372.429688 269.257812 C 359.859375 244.570312 343.777344 222.660156 334.867188 211.273438 C 330.730469 206.007812 328.144531 202.988281 328.144531 202.988281 L 327.300781 199.542969 C 327.300781 199.542969 327.292969 199.542969 327.300781 199.53125 L 325.835938 193.589844 L 267.023438 192.445312 L 266.371094 194.695312 L 264.1875 202.332031 C 264.1875 202.332031 260.636719 206.738281 257.253906 213.945312 C 253.144531 222.667969 249.273438 235.507812 252.21875 249.570312 C 257.589844 275.257812 241.34375 387.242188 267.023438 388.804688 C 285.601562 389.929688 298.757812 388.285156 303.542969 363.695312 C 311.976562 377.226562 329.761719 385.265625 351.5625 354.25 C 378.039062 316.582031 390.800781 305.371094 372.429688 269.257812 Z M 305.492188 334.175781 C 305.445312 331.074219 305.335938 327.8125 305.179688 324.363281 C 302.355469 262.097656 305.179688 260.542969 305.179688 260.542969 C 305.179688 260.542969 326.960938 301.949219 331.9375 305.058594 C 331.9375 305.058594 315.089844 319.445312 305.492188 334.175781 Z M 278.503906 80.253906 L 272.628906 90.101562 L 266.664062 80.253906 L 272.628906 68.300781 Z M 278.503906 80.253906 " fill-opacity="1" fill-rule="nonzero"/><path fill="#d68f72" d="M 277.433594 212.132812 C 275.925781 217.152344 271.523438 229.835938 263.609375 237.015625 C 259.347656 230.375 259.21875 215.773438 259.21875 215.773438 C 259.21875 215.773438 255.667969 212.5 250.941406 207.9375 C 253.601562 202.824219 258.660156 196.339844 267.195312 196.257812 C 270.023438 201.738281 271.660156 205.914062 271.660156 205.914062 C 273.894531 208.109375 275.804688 210.175781 277.433594 212.132812 Z M 277.433594 212.132812 " fill-opacity="1" fill-rule="nonzero"/><path fill="#d68f72" d="M 349.886719 194.320312 C 349.238281 195.363281 348.535156 196.421875 347.773438 197.503906 C 342.542969 204.945312 338.214844 209.300781 334.867188 211.273438 C 330.730469 206.007812 328.144531 202.988281 328.144531 202.988281 L 327.300781 199.542969 C 327.402344 199.03125 327.519531 198.507812 327.65625 197.96875 C 329.058594 192.464844 330.660156 187.855469 332.148438 184.199219 C 336.933594 185.058594 345.121094 187.5 349.886719 194.320312 Z M 349.886719 194.320312 " fill-opacity="1" fill-rule="nonzero"/><path fill="#f6416c" d="M 280.773438 90.785156 C 280.773438 90.785156 293.242188 98.457031 305.398438 93.785156 L 309.214844 99.59375 C 309.214844 99.59375 303.84375 124.128906 289.125 115.429688 C 274.40625 106.734375 272.710938 100.570312 280.773438 90.785156 Z M 280.773438 90.785156 " fill-opacity="1" fill-rule="nonzero"/><path fill="#000000" d="M 274.910156 100.71875 C 275.0625 100.515625 275.355469 100.488281 275.550781 100.652344 C 275.730469 100.808594 294.375 115.6875 308.574219 103.699219 C 308.765625 103.535156 309.058594 103.5625 309.214844 103.753906 C 309.378906 103.945312 309.351562 104.238281 309.160156 104.394531 C 306.261719 106.84375 303.1875 108.214844 300.121094 108.847656 C 301.933594 112.496094 312.179688 135.21875 309.316406 176.992188 C 309.296875 177.230469 309.097656 177.421875 308.859375 177.421875 C 308.847656 177.421875 308.839844 177.421875 308.820312 177.421875 C 308.566406 177.402344 308.382812 177.183594 308.402344 176.9375 C 311.320312 134.257812 300.515625 111.625 299.179688 109.03125 C 298.054688 109.203125 296.929688 109.285156 295.8125 109.285156 C 284.863281 109.285156 275.089844 101.476562 274.953125 101.367188 C 274.78125 101.203125 274.753906 100.910156 274.910156 100.71875 Z M 322.441406 111.78125 C 322.261719 111.609375 321.96875 111.625 321.792969 111.808594 C 321.621094 111.992188 321.636719 112.285156 321.820312 112.457031 C 341.574219 130.445312 330.632812 154.121094 330.511719 154.359375 C 330.402344 154.585938 330.503906 154.863281 330.730469 154.972656 C 330.796875 155 330.859375 155.015625 330.925781 155.015625 C 331.097656 155.015625 331.261719 154.925781 331.335938 154.761719 C 331.464844 154.503906 342.707031 130.226562 322.441406 111.78125 Z M 348.222656 166.136719 C 348.175781 165.890625 347.941406 165.726562 347.691406 165.769531 C 338.746094 167.390625 336.871094 173.542969 336.796875 173.800781 C 336.722656 174.046875 336.871094 174.292969 337.109375 174.367188 C 337.152344 174.375 337.191406 174.386719 337.234375 174.386719 C 337.4375 174.386719 337.621094 174.257812 337.675781 174.054688 C 337.695312 174 339.460938 168.183594 347.859375 166.667969 C 348.105469 166.628906 348.269531 166.394531 348.222656 166.136719 Z M 248.632812 172.328125 C 248.285156 172.207031 240.171875 169.335938 235.09375 171.085938 C 234.855469 171.167969 234.730469 171.421875 234.8125 171.667969 C 234.894531 171.90625 235.148438 172.035156 235.386719 171.953125 C 240.164062 170.316406 248.242188 173.167969 248.324219 173.195312 C 248.378906 173.214844 248.425781 173.222656 248.480469 173.222656 C 248.671875 173.222656 248.84375 173.105469 248.910156 172.921875 C 249 172.675781 248.871094 172.410156 248.632812 172.328125 Z M 259.921875 147.875 C 259.988281 147.875 260.0625 147.855469 260.125 147.828125 L 267.222656 144.335938 C 267.453125 144.226562 267.542969 143.953125 267.433594 143.722656 C 267.324219 143.496094 267.050781 143.402344 266.820312 143.511719 L 259.722656 147.007812 C 259.492188 147.117188 259.402344 147.390625 259.511719 147.621094 C 259.59375 147.785156 259.757812 147.875 259.921875 147.875 Z M 328.152344 202.53125 L 270.03125 201.644531 C 269.792969 201.644531 269.574219 201.847656 269.566406 202.09375 C 269.558594 202.339844 269.765625 202.550781 270.015625 202.558594 L 328.132812 203.445312 C 328.132812 203.445312 328.132812 203.445312 328.144531 203.445312 C 328.390625 203.445312 328.601562 203.246094 328.601562 203 C 328.609375 202.742188 328.40625 202.542969 328.152344 202.53125 Z M 260.316406 238.414062 C 260.089844 238.515625 259.988281 238.789062 260.089844 239.019531 C 260.160156 239.183594 260.324219 239.285156 260.5 239.285156 C 260.5625 239.285156 260.628906 239.273438 260.691406 239.238281 C 271.972656 234.070312 277.632812 212.296875 277.871094 211.375 C 277.9375 211.128906 277.789062 210.882812 277.542969 210.816406 C 277.296875 210.753906 277.050781 210.898438 276.984375 211.144531 C 276.9375 211.382812 271.203125 233.429688 260.316406 238.414062 Z M 322.304688 232.644531 L 304.886719 247.46875 C 304.785156 247.550781 304.730469 247.667969 304.730469 247.796875 L 303.855469 265.785156 C 303.84375 266.039062 304.035156 266.25 304.285156 266.261719 C 304.292969 266.261719 304.300781 266.261719 304.300781 266.261719 C 304.550781 266.261719 304.75 266.066406 304.757812 265.820312 L 305.628906 248.035156 L 322.890625 233.339844 C 323.082031 233.175781 323.109375 232.882812 322.945312 232.691406 C 322.789062 232.507812 322.5 232.488281 322.304688 232.644531 Z M 305.492188 333.71875 C 305.492188 333.71875 305.480469 333.71875 305.480469 333.71875 C 305.226562 333.726562 305.023438 333.9375 305.035156 334.183594 C 305.035156 334.332031 305.335938 349 303.09375 363.621094 C 303.058594 363.867188 303.230469 364.105469 303.480469 364.140625 C 303.507812 364.140625 303.523438 364.152344 303.550781 364.152344 C 303.773438 364.152344 303.972656 363.988281 304 363.765625 C 306.261719 349.0625 305.957031 334.3125 305.957031 334.167969 C 305.949219 333.917969 305.738281 333.71875 305.492188 333.71875 Z M 332.242188 304.710938 C 332.050781 304.546875 331.757812 304.574219 331.589844 304.765625 C 331.425781 304.960938 331.453125 305.253906 331.648438 305.417969 L 335.699219 308.847656 C 335.78125 308.917969 335.890625 308.957031 335.992188 308.957031 C 336.121094 308.957031 336.25 308.902344 336.339844 308.789062 C 336.503906 308.597656 336.476562 308.304688 336.285156 308.140625 Z M 279.519531 279.027344 L 253.21875 279.859375 C 252.960938 279.867188 252.769531 280.078125 252.777344 280.332031 C 252.789062 280.589844 253.007812 280.789062 253.253906 280.773438 L 279.554688 279.941406 C 280.332031 279.921875 281.019531 280.195312 281.550781 280.726562 C 282.082031 281.257812 282.363281 281.96875 282.335938 282.71875 L 280.992188 323.789062 C 280.945312 325.25 279.765625 326.394531 278.300781 326.394531 L 252.027344 326.394531 C 251.773438 326.394531 251.570312 326.59375 251.570312 326.851562 C 251.570312 327.105469 251.773438 327.308594 252.027344 327.308594 L 278.300781 327.308594 C 280.261719 327.308594 281.84375 325.773438 281.90625 323.816406 L 283.25 282.746094 C 283.289062 281.742188 282.914062 280.789062 282.199219 280.078125 C 281.476562 279.375 280.527344 279.007812 279.519531 279.027344 Z M 252.742188 297.113281 C 252.742188 297.113281 252.75 297.113281 252.761719 297.113281 L 274.570312 296.425781 C 276.453125 296.363281 278.054688 294.984375 278.386719 293.125 L 280.386719 281.796875 C 280.433594 281.550781 280.269531 281.3125 280.011719 281.265625 C 279.765625 281.21875 279.527344 281.386719 279.484375 281.640625 L 277.480469 292.972656 C 277.222656 294.398438 275.988281 295.476562 274.535156 295.523438 L 252.722656 296.207031 C 252.46875 296.21875 252.277344 296.425781 252.285156 296.683594 C 252.292969 296.914062 252.496094 297.113281 252.742188 297.113281 Z M 380.9375 291.515625 C 380.820312 291.289062 380.542969 291.207031 380.324219 291.316406 L 369.394531 296.867188 C 368.761719 297.1875 368.046875 297.242188 367.378906 297.023438 C 366.710938 296.800781 366.164062 296.328125 365.851562 295.695312 L 348.085938 260.050781 C 347.765625 259.410156 347.71875 258.6875 347.957031 258.011719 C 348.195312 257.335938 348.679688 256.804688 349.320312 256.492188 L 361.953125 250.539062 C 362.183594 250.429688 362.285156 250.15625 362.175781 249.929688 C 362.066406 249.699219 361.789062 249.597656 361.5625 249.707031 L 348.929688 255.660156 C 348.058594 256.074219 347.410156 256.796875 347.089844 257.699219 C 346.777344 258.605469 346.832031 259.585938 347.261719 260.445312 L 365.027344 296.089844 C 365.449219 296.941406 366.179688 297.578125 367.085938 297.871094 C 367.453125 297.992188 367.828125 298.054688 368.203125 298.054688 C 368.753906 298.054688 369.300781 297.925781 369.804688 297.671875 L 380.738281 292.121094 C 380.964844 292.019531 381.046875 291.746094 380.9375 291.515625 Z M 357.773438 266.113281 L 351.597656 259.15625 C 351.433594 258.960938 351.140625 258.945312 350.949219 259.117188 C 350.757812 259.28125 350.738281 259.574219 350.914062 259.765625 L 357.089844 266.726562 C 357.976562 267.730469 359.246094 268.273438 360.527344 268.273438 C 361.214844 268.273438 361.898438 268.117188 362.539062 267.804688 L 369.226562 264.53125 C 369.457031 264.421875 369.546875 264.148438 369.4375 263.917969 C 369.328125 263.691406 369.054688 263.597656 368.824219 263.707031 L 362.136719 266.980469 C 360.664062 267.703125 358.863281 267.347656 357.773438 266.113281 Z M 253.21875 259.015625 L 277.910156 259.015625 C 278.164062 259.015625 278.367188 258.816406 278.367188 258.558594 C 278.367188 258.304688 278.164062 258.101562 277.910156 258.101562 L 253.21875 258.101562 C 252.960938 258.101562 252.761719 258.304688 252.761719 258.558594 C 252.761719 258.816406 252.96875 259.015625 253.21875 259.015625 Z M 353.097656 235.691406 C 352.988281 235.460938 352.714844 235.371094 352.488281 235.480469 L 344.820312 239.273438 C 344.589844 239.382812 344.5 239.660156 344.609375 239.886719 C 344.691406 240.050781 344.847656 240.144531 345.019531 240.144531 C 345.09375 240.144531 345.160156 240.125 345.222656 240.097656 L 352.890625 236.300781 C 353.117188 236.191406 353.210938 235.917969 353.097656 235.691406 Z M 304.953125 89.789062 C 304.90625 88.902344 304.878906 87.933594 304.878906 86.890625 C 302.902344 87.292969 300.835938 87.292969 298.722656 86.828125 C 291.539062 85.234375 286.171875 82.894531 282.300781 79.65625 C 282.300781 79.65625 282.328125 80.792969 282.21875 82.5 C 286.085938 85.785156 297.222656 91.4375 304.953125 89.789062 Z M 312.152344 60.882812 C 313.90625 60.882812 315.324219 59.464844 315.324219 57.710938 C 315.324219 55.957031 313.90625 54.539062 312.152344 54.539062 C 310.394531 54.539062 308.976562 55.957031 308.976562 57.710938 C 308.976562 59.464844 310.394531 60.882812 312.152344 60.882812 Z M 289.664062 56.15625 C 289.664062 57.910156 291.082031 59.328125 292.839844 59.328125 C 294.597656 59.328125 296.015625 57.910156 296.015625 56.15625 C 296.015625 54.402344 294.597656 52.984375 292.839844 52.984375 C 291.09375 52.984375 289.664062 54.410156 289.664062 56.15625 Z M 306.09375 62.988281 C 306.113281 62.996094 307.742188 63.609375 308.253906 65.0625 C 308.601562 66.050781 308.382812 67.230469 307.585938 68.554688 C 307.457031 68.777344 307.53125 69.050781 307.742188 69.1875 C 307.816406 69.234375 307.898438 69.25 307.980469 69.25 C 308.136719 69.25 308.289062 69.167969 308.375 69.03125 C 309.316406 67.449219 309.5625 66.015625 309.113281 64.753906 C 308.445312 62.886719 306.488281 62.15625 306.40625 62.128906 C 306.167969 62.046875 305.914062 62.164062 305.820312 62.402344 C 305.730469 62.640625 305.855469 62.90625 306.09375 62.988281 Z M 299.023438 76.464844 C 299.085938 76.65625 299.261719 76.785156 299.460938 76.785156 C 299.507812 76.785156 299.554688 76.777344 299.601562 76.769531 C 304.640625 75.214844 307.347656 76.382812 307.375 76.394531 C 307.605469 76.492188 307.878906 76.394531 307.980469 76.164062 C 308.089844 75.9375 307.988281 75.660156 307.75 75.5625 C 307.632812 75.507812 304.742188 74.226562 299.316406 75.890625 C 299.085938 75.972656 298.949219 76.226562 299.023438 76.464844 Z M 288.886719 46.601562 C 293.625 45.59375 296.984375 48.613281 297.128906 48.738281 C 297.394531 48.988281 297.734375 49.105469 298.0625 49.105469 C 298.429688 49.105469 298.792969 48.960938 299.058594 48.675781 C 299.582031 48.128906 299.554688 47.257812 298.996094 46.738281 C 298.8125 46.5625 294.496094 42.605469 288.3125 43.921875 C 287.570312 44.078125 287.09375 44.808594 287.257812 45.546875 C 287.414062 46.28125 288.144531 46.753906 288.886719 46.601562 Z M 266.457031 57.738281 C 266.472656 57.730469 268.449219 56.632812 270.535156 57.328125 C 272 57.8125 273.1875 59.074219 274.058594 61.058594 C 274.128906 61.230469 274.304688 61.332031 274.476562 61.332031 C 274.542969 61.332031 274.605469 61.324219 274.660156 61.296875 C 274.890625 61.195312 275 60.921875 274.898438 60.691406 C 273.921875 58.460938 272.546875 57.035156 270.828125 56.457031 C 268.359375 55.636719 266.097656 56.886719 266.007812 56.933594 C 265.789062 57.0625 265.707031 57.335938 265.832031 57.554688 C 265.960938 57.773438 266.234375 57.867188 266.457031 57.738281 Z M 266.457031 57.738281 " fill-opacity="1" fill-rule="nonzero"/><path fill="#d68f72" d="M 327.867188 178.0625 L 325.835938 193.589844 C 323.359375 194.257812 267.023438 192.445312 267.023438 192.445312 L 267.023438 177.429688 Z M 327.867188 178.0625 " fill-opacity="1" fill-rule="nonzero"/><path fill="#7fb39c" d="M 222.257812 135.144531 C 229.667969 163.667969 220.285156 204.671875 217.839844 219.722656 C 214.308594 241.503906 162.996094 237.4375 137.738281 233.933594 C 112.480469 230.433594 130.0625 211.75 130.0625 211.75 C 124.921875 203.574219 122.121094 182.570312 122.121094 182.570312 C 93.394531 184.902344 73.304688 164.589844 66.308594 143.578125 C 59.316406 122.5625 85.21875 107.28125 85.21875 107.28125 C 85.21875 107.28125 84.75 96.183594 96.660156 98.277344 C 108.574219 100.378906 104.839844 110.886719 104.839844 110.886719 C 109.742188 118.121094 108.105469 128.414062 108.105469 128.414062 C 124.636719 116.125 148.726562 111.214844 159.621094 109.53125 C 163.425781 108.949219 167.203125 108.199219 170.972656 107.375 C 174.878906 106.523438 178.503906 106.011719 181.886719 105.765625 C 234.589844 87.523438 254.792969 100.992188 254.792969 100.992188 C 254.792969 100.992188 246.238281 120.269531 222.257812 135.144531 Z M 222.257812 135.144531 " fill-opacity="1" fill-rule="nonzero"/><path fill="#f6416c" d="M 196.003906 187.023438 L 147.480469 190.03125 L 144.472656 141.527344 L 192.992188 138.519531 Z M 196.003906 187.023438 " fill-opacity="1" fill-rule="nonzero"/><path fill="#000000" d="M 128.78125 212.867188 C 127.875 212.867188 127.015625 212.324219 126.660156 211.4375 C 126.183594 210.269531 126.75 208.933594 127.921875 208.464844 C 183.488281 186.027344 203.53125 99.96875 203.734375 99.097656 C 204.007812 97.863281 205.234375 97.097656 206.46875 97.371094 C 207.703125 97.644531 208.472656 98.871094 208.199219 100.105469 C 208.152344 100.324219 203.039062 122.609375 190.9375 147.410156 C 179.691406 170.445312 159.933594 200.464844 129.632812 212.699219 C 129.359375 212.820312 129.074219 212.867188 128.78125 212.867188 Z M 128.78125 212.867188 " fill-opacity="1" fill-rule="nonzero"/><path fill="#403934" d="M 208.894531 140.304688 C 212.085938 156.882812 200.441406 162.808594 198.65625 163.355469 C 191.730469 165.480469 197.3125 131.753906 189.042969 124.8125 C 184.136719 120.699219 181.441406 115.175781 177.789062 109.605469 C 176.050781 106.945312 177.257812 108.78125 176.078125 105.671875 C 174.597656 101.761719 171.230469 96.765625 162.859375 92.242188 C 161.988281 99.226562 160.023438 105.398438 156.929688 108.628906 C 146.65625 119.363281 154.132812 124.96875 158.019531 143.183594 C 160.78125 156.125 150.746094 165.203125 144.691406 169.382812 C 143.5 170.207031 141.957031 169.101562 142.320312 167.699219 C 143.902344 161.636719 141.855469 154.222656 134.65625 151.742188 C 125.625 148.632812 123.914062 140.375 127.335938 130.886719 C 130.757812 121.394531 121.34375 127.015625 118.308594 118.121094 C 113.789062 104.886719 124.226562 107.601562 122.824219 90.722656 C 121.875 79.226562 128.957031 69.289062 135.597656 62.703125 C 137.617188 60.699219 143.75 57.710938 151.496094 56.660156 C 152.605469 56.511719 153.628906 56.660156 154.578125 57.0625 C 156.375 56.257812 158.542969 55.589844 161.140625 55.078125 C 161.140625 55.078125 179.5625 53.605469 191.503906 62.082031 C 207.074219 73.136719 200.769531 75.003906 209.523438 83.058594 C 223.273438 95.695312 206.074219 104.59375 212.992188 110.4375 C 228.316406 123.40625 206.257812 126.640625 208.894531 140.304688 Z M 208.894531 140.304688 " fill-opacity="1" fill-rule="nonzero"/><path fill="#d68f72" d="M 179.089844 111.527344 C 181.121094 116.417969 179.976562 122.144531 175.867188 125.5 C 173.945312 127.070312 171.421875 128.234375 168.128906 128.40625 C 164.871094 128.570312 162.144531 127.75 159.933594 126.488281 C 155.109375 123.734375 152.960938 117.855469 154.664062 112.578125 C 155.148438 111.085938 155.523438 109.460938 155.804688 107.867188 C 146.765625 103.707031 139.980469 93.585938 139.246094 82.308594 C 138.25 67.082031 148.570312 54.015625 162.300781 53.121094 C 176.03125 52.214844 187.972656 63.828125 188.96875 79.054688 C 189.664062 89.605469 184.960938 99.867188 177.441406 105.480469 C 177.882812 108.085938 178.484375 110.0625 179.089844 111.527344 Z M 179.089844 111.527344 " fill-opacity="1" fill-rule="nonzero"/><path fill="#403934" d="M 185.355469 79.683594 L 184.359375 72.523438 C 184.359375 72.523438 184.375 72.507812 184.402344 72.46875 C 173.050781 67.886719 163.738281 53.054688 163.738281 53.054688 C 172.847656 49.601562 191 62.941406 193.898438 69.871094 C 194.382812 70.136719 194.886719 70.46875 195.390625 70.886719 C 201.375 75.863281 185.355469 79.683594 185.355469 79.683594 Z M 134.71875 73.164062 C 134.042969 73.410156 133.613281 74.007812 133.613281 75.085938 C 133.183594 75.863281 132.945312 76.339844 132.945312 76.339844 C 133.292969 76.601562 133.640625 76.839844 133.976562 77.070312 C 135.714844 82.238281 143.164062 83.472656 143.164062 83.472656 L 143.886719 78.414062 C 153.097656 74.207031 157.269531 54.996094 157.269531 54.996094 C 147.242188 54.335938 138.378906 67.066406 134.71875 73.164062 Z M 134.71875 73.164062 " fill-opacity="1" fill-rule="nonzero"/><path fill="#d68f72" d="M 155.285156 360.476562 C 161.03125 407.277344 112.636719 321.847656 103.980469 306.292969 C 103.414062 305.664062 102.984375 304.867188 102.691406 303.953125 C 102.679688 303.933594 102.671875 303.917969 102.671875 303.917969 L 102.679688 303.90625 C 97.410156 287.421875 133.238281 228.128906 133.238281 228.128906 L 162.292969 252.835938 C 162.292969 252.835938 145.871094 279.902344 129.238281 296.171875 C 138.296875 307.171875 151.304688 328.050781 155.285156 360.476562 Z M 179.574219 252.84375 C 179.574219 280.160156 184.714844 329.191406 184.714844 329.191406 C 184.011719 386.628906 200.128906 413.941406 206.910156 387.5625 C 213.679688 361.179688 206.910156 325.460938 206.910156 325.460938 C 210.648438 303.980469 213.140625 261.796875 213.140625 261.796875 C 211.191406 222.175781 179.574219 225.519531 179.574219 252.84375 Z M 179.574219 252.84375 " fill-opacity="1" fill-rule="nonzero"/><path fill="#403934" d="M 183.78125 443.515625 C 173.105469 439.101562 178.566406 424.558594 181.539062 417.207031 C 183.414062 412.582031 186.050781 403.472656 187.320312 398.957031 C 186.800781 398.527344 186.460938 397.894531 186.433594 397.191406 L 185.566406 376.644531 C 185.492188 375.023438 187.011719 373.800781 188.574219 374.210938 C 197.285156 376.496094 204.695312 375.324219 208.703125 374.273438 C 210.285156 373.863281 211.8125 375.070312 211.75 376.707031 L 210.871094 397.320312 C 210.832031 398.261719 210.238281 399.082031 209.378906 399.449219 C 210.230469 405.046875 211.546875 412.261719 213.605469 421.332031 C 219.824219 448.882812 193.746094 447.640625 183.78125 443.515625 Z M 163.5 370.066406 C 163.589844 369.96875 163.683594 369.875 163.765625 369.777344 C 164.808594 368.53125 165.109375 366.820312 164.515625 365.304688 L 157.679688 347.726562 C 156.832031 345.550781 154.441406 344.417969 152.21875 345.121094 C 147.515625 346.601562 139.585938 349.886719 133.15625 356.523438 C 131.746094 357.96875 131.5 360.191406 132.542969 361.910156 L 142.136719 377.683594 C 142.53125 378.34375 143.082031 378.855469 143.710938 379.222656 C 140.828125 385.585938 138.203125 394.445312 136.648438 400.171875 C 135.714844 403.589844 133.621094 406.589844 130.683594 408.574219 C 119.230469 416.328125 119.699219 423.5 121.582031 426.746094 C 122.550781 428.410156 124.273438 429.480469 126.183594 429.679688 C 169.8125 434.300781 159.683594 412.984375 166.117188 407.324219 C 171.421875 402.648438 173.863281 393.558594 174.585938 390.304688 C 174.78125 389.453125 174.789062 388.578125 174.597656 387.726562 C 173.113281 381.113281 166.8125 373.644531 163.5 370.066406 Z M 163.5 370.066406 " fill-opacity="1" fill-rule="nonzero"/><path fill="#d68f72" d="M 196.351562 83.152344 C 195.261719 88.1875 191.859375 91.726562 188.75 91.0625 C 185.640625 90.394531 184 85.757812 185.089844 80.71875 C 186.179688 75.679688 189.582031 72.140625 192.691406 72.808594 C 195.800781 73.484375 197.441406 78.113281 196.351562 83.152344 Z M 132.3125 87.347656 C 134.050781 92.203125 137.882812 95.265625 140.886719 94.199219 C 143.886719 93.128906 144.902344 88.328125 143.164062 83.472656 C 141.425781 78.613281 137.589844 75.550781 134.589844 76.621094 C 131.589844 77.691406 130.574219 82.492188 132.3125 87.347656 Z M 132.3125 87.347656 " fill-opacity="1" fill-rule="nonzero"/><path fill="#7fb39c" d="M 252.136719 127.894531 C 238.277344 141.902344 208.691406 138.785156 208.691406 138.785156 C 208.691406 138.785156 206.394531 140.972656 202.324219 141.484375 C 201.777344 141.554688 201.199219 141.59375 200.597656 141.59375 C 196.523438 141.59375 193.835938 135.074219 193.496094 130.886719 C 193.40625 129.769531 193.480469 128.828125 193.746094 128.207031 C 194.988281 125.242188 199.507812 123.84375 199.507812 123.84375 C 199.507812 123.84375 197.164062 111.699219 216.632812 101.585938 C 233.3125 92.917969 251.023438 97.964844 255.75 99.582031 C 256.640625 99.894531 257.507812 100.277344 258.296875 100.808594 C 264.570312 105.042969 265.128906 114.761719 252.136719 127.894531 Z M 252.136719 127.894531 " fill-opacity="1" fill-rule="nonzero"/><path fill="#000000" d="M 208.308594 216.183594 C 208.308594 216.183594 213.292969 225.832031 213.140625 261.789062 C 213.140625 261.789062 151.011719 268.636719 120.015625 251.828125 C 120.015625 251.828125 128.113281 232.835938 138.230469 221.945312 C 138.230469 221.945312 177.632812 209.023438 208.308594 216.183594 Z M 208.308594 216.183594 " fill-opacity="1" fill-rule="nonzero"/><path fill="#f6416c" d="M 194.714844 64.761719 C 194.714844 64.761719 164.378906 51.792969 128.78125 70.832031 C 128.78125 70.832031 128.734375 62.253906 136.089844 52.269531 C 136.089844 52.269531 131.132812 33.632812 157.433594 29.472656 C 183.734375 25.3125 185.402344 46.117188 185.402344 46.117188 C 185.402344 46.117188 194.035156 52.957031 194.714844 64.761719 Z M 194.714844 64.761719 " fill-opacity="1" fill-rule="nonzero"/><path fill="#000000" d="M 157.890625 83.816406 C 157.890625 85.8125 156.28125 87.421875 154.289062 87.421875 C 152.292969 87.421875 150.683594 85.8125 150.683594 83.816406 C 150.683594 81.824219 152.292969 80.214844 154.289062 80.214844 C 156.28125 80.214844 157.890625 81.824219 157.890625 83.816406 Z M 166.417969 110.417969 C 163.132812 110.640625 159.566406 109.460938 156.59375 108.207031 C 158.871094 111.460938 162.601562 113.628906 166.601562 113.527344 C 171.15625 113.410156 175.027344 110.15625 176.828125 105.921875 C 173.664062 108.171875 170.378906 110.164062 166.417969 110.417969 Z M 179.160156 82.097656 C 179.234375 81.851562 179.089844 81.605469 178.851562 81.53125 C 178.613281 81.46875 178.355469 81.605469 178.285156 81.84375 C 178.273438 81.863281 177.726562 83.691406 175.0625 83.691406 C 172.429688 83.691406 171.796875 81.90625 171.769531 81.824219 C 171.6875 81.585938 171.429688 81.449219 171.195312 81.53125 C 170.957031 81.605469 170.820312 81.871094 170.902344 82.109375 C 170.9375 82.207031 171.734375 84.605469 175.074219 84.605469 C 178.402344 84.613281 179.132812 82.207031 179.160156 82.097656 Z M 157.761719 76.449219 C 157.761719 75.394531 156.914062 74.535156 155.851562 74.535156 L 151.175781 74.535156 C 150.125 74.535156 149.265625 75.386719 149.265625 76.449219 C 149.265625 77.5 150.117188 78.359375 151.175781 78.359375 L 155.851562 78.359375 C 156.914062 78.359375 157.761719 77.5 157.761719 76.449219 Z M 178.273438 73.101562 C 178.101562 72.058594 177.113281 71.363281 176.078125 71.539062 L 171.46875 72.316406 C 170.425781 72.488281 169.730469 73.476562 169.902344 74.507812 C 170.078125 75.550781 171.066406 76.246094 172.097656 76.074219 L 176.710938 75.296875 C 177.742188 75.121094 178.449219 74.132812 178.273438 73.101562 Z M 164.734375 91.464844 C 164.945312 91.324219 165.007812 91.042969 164.871094 90.832031 C 163.410156 88.546875 164.753906 87.101562 164.816406 87.039062 C 164.992188 86.855469 164.992188 86.570312 164.816406 86.386719 C 164.644531 86.214844 164.351562 86.214844 164.167969 86.386719 C 164.148438 86.40625 162.226562 88.390625 164.101562 91.316406 C 164.195312 91.453125 164.339844 91.527344 164.488281 91.527344 C 164.570312 91.535156 164.660156 91.519531 164.734375 91.464844 Z M 188.320312 80.28125 C 189.363281 78.222656 190.460938 77.160156 191.601562 77.105469 C 193.160156 77.03125 194.4375 78.972656 194.449219 79 C 194.585938 79.210938 194.871094 79.273438 195.078125 79.144531 C 195.289062 79.007812 195.355469 78.734375 195.226562 78.515625 C 195.164062 78.414062 193.707031 76.089844 191.566406 76.199219 C 190.074219 76.265625 188.703125 77.507812 187.503906 79.878906 C 187.394531 80.105469 187.476562 80.378906 187.707031 80.488281 C 187.769531 80.527344 187.84375 80.535156 187.917969 80.535156 C 188.070312 80.527344 188.238281 80.433594 188.320312 80.28125 Z M 140.371094 84.230469 C 140.601562 84.121094 140.691406 83.835938 140.574219 83.617188 C 139.375 81.25 138.003906 80.003906 136.511719 79.941406 C 134.40625 79.832031 132.90625 82.164062 132.851562 82.253906 C 132.714844 82.464844 132.78125 82.75 133 82.886719 C 133.210938 83.023438 133.492188 82.957031 133.628906 82.738281 C 133.640625 82.722656 134.867188 80.792969 136.484375 80.847656 C 137.628906 80.902344 138.726562 81.972656 139.769531 84.019531 C 139.851562 84.175781 140.007812 84.265625 140.179688 84.265625 C 140.234375 84.277344 140.300781 84.257812 140.371094 84.230469 Z M 176.472656 93.730469 C 176.65625 93.558594 176.671875 93.273438 176.5 93.082031 C 176.324219 92.890625 176.042969 92.878906 175.851562 93.054688 C 175.796875 93.101562 170.535156 97.773438 159.875 97.5625 C 159.574219 97.5625 159.417969 97.753906 159.410156 98.011719 C 159.402344 98.265625 159.601562 98.46875 159.859375 98.476562 C 160.085938 98.476562 160.316406 98.484375 160.542969 98.484375 C 171.121094 98.476562 176.253906 93.921875 176.472656 93.730469 Z M 176.472656 93.730469 " fill-opacity="1" fill-rule="nonzero"/><path fill="#d68f72" d="M 205.152344 160.722656 C 201.960938 156.984375 198.226562 153.699219 198.226562 153.699219 C 198.226562 153.699219 198.765625 155.429688 197.832031 165.160156 C 196.898438 174.886719 192.617188 182.359375 192.691406 178.234375 C 192.773438 174.109375 192.464844 164.847656 192.464844 164.847656 C 190.285156 164.226562 183.039062 147.492188 185.21875 140.332031 C 186.570312 135.90625 190.496094 132.640625 193.304688 130.792969 C 193.644531 134.980469 196.332031 141.5 200.402344 141.5 C 201.007812 141.5 201.585938 141.464844 202.132812 141.390625 C 201.082031 145.453125 199.855469 148.816406 199.855469 148.816406 C 207.484375 154.878906 208.34375 164.453125 205.152344 160.722656 Z M 109.734375 80.984375 C 109.734375 80.984375 112.691406 68.859375 109.269531 62.007812 C 107.136719 57.738281 105.609375 67.414062 104.832031 78.972656 C 104.832031 78.972656 100.082031 59.4375 97.121094 59.4375 C 94.164062 59.4375 99.917969 80.453125 99.917969 80.453125 C 99.917969 80.453125 96.570312 78.039062 96.257812 82.308594 C 96.257812 82.308594 91.511719 80.765625 91.042969 85.820312 C 90.578125 90.878906 90.578125 93.601562 90.578125 93.601562 C 90.578125 93.601562 90.878906 96.613281 92.113281 99.59375 L 91.117188 103.25 C 91.117188 103.25 95.242188 108.617188 101.628906 107.839844 L 102.765625 104.519531 C 103.359375 104.257812 103.980469 103.945312 104.640625 103.550781 C 104.640625 103.550781 112.761719 97.570312 113.777344 92.753906 C 114.804688 87.933594 112.699219 82.539062 109.734375 80.984375 Z M 109.734375 80.984375 " fill-opacity="1" fill-rule="nonzero"/><path fill="#000000" d="M 209.636719 399.367188 C 209.71875 399.605469 209.597656 399.871094 209.359375 399.953125 C 205.792969 401.222656 202.34375 401.671875 199.261719 401.671875 C 192.28125 401.671875 187.210938 399.402344 187.140625 399.367188 C 186.910156 399.265625 186.808594 398.992188 186.910156 398.761719 C 187.011719 398.535156 187.285156 398.433594 187.515625 398.535156 C 187.613281 398.582031 197.777344 403.117188 209.050781 399.09375 C 209.289062 399 209.550781 399.128906 209.636719 399.367188 Z M 163.417969 369.472656 C 163.351562 369.546875 156.96875 376.6875 143.648438 378.773438 C 143.402344 378.808594 143.226562 379.046875 143.261719 379.292969 C 143.300781 379.523438 143.492188 379.679688 143.710938 379.679688 C 143.738281 379.679688 143.757812 379.679688 143.785156 379.667969 C 157.453125 377.53125 163.839844 370.371094 164.101562 370.066406 C 164.269531 369.875 164.25 369.59375 164.058594 369.417969 C 163.875 369.261719 163.582031 369.28125 163.417969 369.472656 Z M 222.789062 138.503906 C 222.835938 138.75 222.671875 138.988281 222.425781 139.03125 C 217.429688 139.945312 213.148438 139.792969 209.625 138.59375 C 208.8125 139.351562 205.839844 141.8125 201.292969 141.8125 C 200.871094 141.8125 200.429688 141.792969 199.972656 141.75 C 196.679688 141.410156 193.589844 137.421875 193.078125 132.851562 C 192.5625 128.269531 194.90625 124.640625 199.332031 123.148438 C 199.472656 123.101562 199.625 123.121094 199.746094 123.210938 C 199.863281 123.304688 199.9375 123.433594 199.9375 123.578125 C 199.9375 123.652344 200.140625 130.914062 205.519531 135.3125 C 206.714844 136.296875 208.089844 137.066406 209.617188 137.625 C 209.652344 137.632812 209.679688 137.644531 209.71875 137.660156 C 213.128906 138.878906 217.328125 139.042969 222.257812 138.144531 C 222.507812 138.082031 222.746094 138.253906 222.789062 138.503906 Z M 208.648438 138.21875 C 207.285156 137.652344 206.039062 136.910156 204.921875 135.996094 C 200.113281 132.054688 199.214844 126.148438 199.050781 124.210938 C 193.855469 126.265625 193.761719 130.820312 193.972656 132.730469 C 194.429688 136.828125 197.210938 140.53125 200.054688 140.816406 C 204.394531 141.273438 207.476562 139.1875 208.648438 138.21875 Z M 192.214844 174.402344 C 192.214844 174.652344 192.425781 174.851562 192.671875 174.851562 C 192.671875 174.851562 192.671875 174.851562 192.683594 174.851562 C 192.9375 174.851562 193.140625 174.640625 193.132812 174.386719 C 193.121094 173.773438 192.957031 159.261719 191.785156 154.441406 C 191.730469 154.195312 191.484375 154.046875 191.238281 154.101562 C 190.992188 154.15625 190.84375 154.40625 190.898438 154.652344 C 192.042969 159.378906 192.214844 174.25 192.214844 174.402344 Z M 102.679688 88.976562 C 102.699219 89.214844 102.902344 89.394531 103.140625 89.394531 C 103.148438 89.394531 103.167969 89.394531 103.175781 89.394531 C 103.429688 89.378906 103.613281 89.160156 103.597656 88.902344 C 103.238281 84.59375 100.429688 80.378906 100.3125 80.195312 C 100.175781 79.988281 99.882812 79.933594 99.679688 80.078125 C 99.46875 80.214844 99.414062 80.507812 99.5625 80.710938 C 99.582031 80.753906 102.34375 84.90625 102.679688 88.976562 Z M 100.46875 92.898438 C 100.503906 92.898438 100.53125 92.898438 100.558594 92.890625 C 100.925781 92.84375 101.179688 92.734375 101.382812 92.585938 C 100.339844 93.886719 99.582031 95.277344 99.582031 96.574219 C 99.582031 96.832031 99.78125 97.03125 100.039062 97.03125 C 100.292969 97.03125 100.496094 96.832031 100.496094 96.574219 C 100.496094 92.953125 107.921875 88.015625 107.996094 87.96875 C 108.125 87.886719 108.199219 87.75 108.199219 87.605469 C 108.199219 87.457031 108.132812 87.3125 108.015625 87.21875 C 104.464844 84.578125 102.34375 82.292969 102.179688 80.957031 C 102.140625 80.664062 102.207031 80.425781 102.371094 80.222656 C 103.183594 79.246094 106.878906 80.308594 109.242188 81.386719 C 109.46875 81.488281 109.742188 81.386719 109.84375 81.15625 C 109.945312 80.929688 109.84375 80.65625 109.617188 80.554688 C 108.554688 80.078125 103.203125 77.78125 101.65625 79.648438 C 101.328125 80.042969 101.199219 80.515625 101.261719 81.066406 C 101.457031 82.648438 103.367188 84.832031 106.953125 87.566406 C 105.917969 88.289062 103.625 90.007812 101.867188 92.003906 C 101.875 91.992188 101.886719 91.976562 101.886719 91.964844 C 102.847656 89.617188 97.878906 83.359375 96.882812 82.125 C 96.726562 81.933594 96.433594 81.898438 96.242188 82.0625 C 96.046875 82.21875 96.011719 82.511719 96.175781 82.703125 C 98.371094 85.390625 101.628906 90.183594 101.042969 91.617188 C 100.988281 91.753906 100.871094 91.921875 100.449219 91.976562 C 99.625 92.058594 96.011719 89.058594 93.113281 86.222656 C 92.929688 86.050781 92.644531 86.050781 92.460938 86.234375 C 92.289062 86.414062 92.289062 86.699219 92.472656 86.882812 C 93.945312 88.316406 98.765625 92.898438 100.46875 92.898438 Z M 100.679688 108.34375 C 101 108.34375 101.328125 108.335938 101.664062 108.316406 C 101.921875 108.296875 102.105469 108.078125 102.097656 107.832031 C 102.078125 107.574219 101.859375 107.382812 101.609375 107.402344 C 94.667969 107.839844 91.640625 103.222656 91.511719 103.023438 C 91.375 102.8125 91.089844 102.746094 90.878906 102.882812 C 90.667969 103.023438 90.605469 103.304688 90.734375 103.515625 C 90.871094 103.707031 93.871094 108.34375 100.679688 108.34375 Z M 105.417969 110.539062 C 105.460938 110.292969 105.308594 110.054688 105.050781 110 C 104.804688 109.953125 104.566406 110.109375 104.511719 110.355469 C 104.445312 110.667969 102.964844 117.871094 95.4375 117.351562 C 87.859375 116.839844 85.675781 107.273438 85.65625 107.183594 C 85.601562 106.9375 85.355469 106.78125 85.105469 106.835938 C 84.859375 106.890625 84.703125 107.136719 84.757812 107.375 C 84.777344 107.476562 87.109375 117.699219 95.371094 118.265625 C 95.644531 118.285156 95.921875 118.292969 96.175781 118.292969 C 103.816406 118.300781 105.398438 110.613281 105.417969 110.539062 Z M 107.96875 127.984375 C 107.796875 128.042969 107.667969 128.195312 107.648438 128.378906 C 107.628906 128.570312 105.671875 147.773438 101.117188 157.515625 C 101.007812 157.742188 101.109375 158.015625 101.335938 158.125 C 101.402344 158.152344 101.464844 158.171875 101.527344 158.171875 C 101.703125 158.171875 101.867188 158.070312 101.941406 157.90625 C 105.917969 149.394531 107.933594 133.855469 108.425781 129.585938 C 110.777344 132.605469 118.371094 142.800781 118.847656 149.339844 C 118.863281 149.59375 119.09375 149.785156 119.339844 149.757812 C 119.597656 149.742188 119.78125 149.519531 119.761719 149.265625 C 119.175781 141.273438 108.882812 128.664062 108.445312 128.132812 C 108.335938 127.984375 108.144531 127.929688 107.96875 127.984375 Z M 201.960938 215.324219 C 201.710938 215.316406 201.492188 215.507812 201.484375 215.765625 C 201.472656 216.019531 201.667969 216.230469 201.921875 216.238281 C 211.015625 216.632812 213.496094 220.125 213.53125 220.179688 C 213.625 220.308594 213.761719 220.382812 213.917969 220.382812 C 214 220.382812 214.089844 220.355469 214.164062 220.308594 C 214.375 220.171875 214.429688 219.886719 214.292969 219.679688 C 214.191406 219.511719 211.601562 215.738281 201.960938 215.324219 Z M 141.636719 221.535156 C 141.582031 221.289062 141.332031 221.132812 141.085938 221.1875 C 140.71875 221.269531 132 223.261719 127.703125 226.078125 C 127.492188 226.214844 127.425781 226.5 127.574219 226.710938 C 127.664062 226.847656 127.8125 226.921875 127.957031 226.921875 C 128.039062 226.921875 128.132812 226.894531 128.207031 226.847656 C 132.367188 224.121094 141.207031 222.101562 141.289062 222.082031 C 141.542969 222.027344 141.699219 221.78125 141.636719 221.535156 Z M 244.070312 98.183594 C 228.488281 95.460938 212.039062 103.625 211.875 103.707031 C 211.648438 103.816406 211.554688 104.089844 211.675781 104.320312 C 211.757812 104.476562 211.914062 104.566406 212.085938 104.566406 C 212.160156 104.566406 212.222656 104.550781 212.289062 104.519531 C 212.453125 104.4375 228.625 96.402344 243.90625 99.082031 C 244.152344 99.117188 244.390625 98.960938 244.433594 98.707031 C 244.480469 98.46875 244.316406 98.230469 244.070312 98.183594 Z M 164.507812 29.007812 C 164.285156 28.878906 164.011719 28.960938 163.882812 29.179688 C 163.753906 29.398438 163.839844 29.675781 164.058594 29.800781 C 164.113281 29.839844 169.894531 33.269531 172.894531 44.925781 C 172.949219 45.136719 173.132812 45.273438 173.335938 45.273438 C 173.371094 45.273438 173.40625 45.273438 173.453125 45.257812 C 173.699219 45.191406 173.847656 44.945312 173.78125 44.699219 C 170.664062 32.628906 164.753906 29.152344 164.507812 29.007812 Z M 163.269531 46.296875 C 163.28125 46.546875 163.480469 46.738281 163.726562 46.738281 C 163.738281 46.738281 163.746094 46.738281 163.746094 46.738281 C 164.003906 46.726562 164.195312 46.507812 164.1875 46.261719 C 163.636719 34.253906 160.828125 29.710938 160.710938 29.527344 C 160.570312 29.316406 160.289062 29.253906 160.078125 29.390625 C 159.867188 29.527344 159.804688 29.8125 159.933594 30.019531 C 159.96875 30.046875 162.742188 34.574219 163.269531 46.296875 Z M 155.402344 48.65625 C 155.429688 48.65625 155.46875 48.65625 155.496094 48.648438 C 155.742188 48.59375 155.898438 48.355469 155.84375 48.109375 C 153.738281 38.25 155.816406 30.753906 155.832031 30.671875 C 155.90625 30.421875 155.761719 30.175781 155.523438 30.105469 C 155.285156 30.039062 155.027344 30.175781 154.957031 30.414062 C 154.863281 30.726562 152.796875 38.195312 154.945312 48.292969 C 155 48.511719 155.191406 48.65625 155.402344 48.65625 Z M 146.933594 52.945312 C 146.96875 52.945312 147.015625 52.9375 147.050781 52.929688 C 147.296875 52.863281 147.433594 52.609375 147.371094 52.371094 C 144.753906 42.6875 148.359375 32.929688 148.394531 32.828125 C 148.488281 32.589844 148.367188 32.324219 148.128906 32.242188 C 147.894531 32.152344 147.628906 32.269531 147.546875 32.507812 C 147.507812 32.609375 143.792969 42.632812 146.492188 52.609375 C 146.546875 52.820312 146.730469 52.945312 146.933594 52.945312 Z M 203.992188 409.179688 C 196.664062 407.183594 190.660156 409.105469 190.414062 409.1875 C 190.175781 409.269531 190.046875 409.527344 190.121094 409.765625 C 190.183594 409.957031 190.367188 410.074219 190.558594 410.074219 C 190.605469 410.074219 190.652344 410.066406 190.707031 410.046875 C 190.761719 410.03125 196.691406 408.128906 203.761719 410.058594 C 204 410.121094 204.253906 409.984375 204.320312 409.738281 C 204.375 409.5 204.238281 409.242188 203.992188 409.179688 Z M 203.972656 414.109375 C 197.402344 412.535156 190.066406 414.042969 189.753906 414.109375 C 189.507812 414.164062 189.351562 414.402344 189.398438 414.648438 C 189.445312 414.894531 189.691406 415.058594 189.9375 415.003906 C 190.011719 414.984375 197.386719 413.476562 203.753906 415.003906 C 203.789062 415.011719 203.824219 415.011719 203.863281 415.011719 C 204.074219 415.011719 204.253906 414.875 204.308594 414.664062 C 204.375 414.410156 204.21875 414.164062 203.972656 414.109375 Z M 203.953125 419.558594 C 196.25 418.160156 189.289062 419.550781 189.226562 419.558594 C 188.976562 419.613281 188.824219 419.851562 188.867188 420.097656 C 188.921875 420.34375 189.160156 420.507812 189.40625 420.453125 C 189.472656 420.4375 196.269531 419.089844 203.796875 420.453125 C 203.824219 420.453125 203.851562 420.464844 203.878906 420.464844 C 204.101562 420.464844 204.292969 420.308594 204.328125 420.089844 C 204.367188 419.839844 204.199219 419.605469 203.953125 419.558594 Z M 148.953125 390.386719 C 148.78125 390.332031 144.664062 389.117188 139.476562 389.984375 C 139.230469 390.03125 139.054688 390.257812 139.101562 390.515625 C 139.148438 390.761719 139.375 390.9375 139.632812 390.890625 C 144.589844 390.058594 148.652344 391.253906 148.6875 391.273438 C 148.734375 391.285156 148.78125 391.292969 148.824219 391.292969 C 149.019531 391.292969 149.199219 391.164062 149.265625 390.964844 C 149.339844 390.714844 149.199219 390.460938 148.953125 390.386719 Z M 148.441406 394.878906 C 148.140625 394.8125 141.050781 393.351562 137.992188 394.519531 C 137.757812 394.613281 137.636719 394.878906 137.730469 395.113281 C 137.820312 395.351562 138.085938 395.472656 138.324219 395.378906 C 141.132812 394.300781 148.183594 395.765625 148.25 395.78125 C 148.277344 395.792969 148.3125 395.792969 148.339844 395.792969 C 148.550781 395.792969 148.742188 395.644531 148.789062 395.425781 C 148.851562 395.167969 148.6875 394.921875 148.441406 394.878906 Z M 147.1875 399.652344 C 146.976562 399.585938 141.902344 398.050781 136.757812 399.09375 C 136.511719 399.136719 136.347656 399.386719 136.402344 399.632812 C 136.457031 399.878906 136.695312 400.042969 136.941406 399.988281 C 141.855469 398.992188 146.878906 400.5 146.921875 400.519531 C 146.96875 400.539062 147.015625 400.539062 147.058594 400.539062 C 147.253906 400.539062 147.433594 400.410156 147.5 400.21875 C 147.5625 399.980469 147.425781 399.722656 147.1875 399.652344 Z M 147.1875 399.652344 " fill-opacity="1" fill-rule="nonzero"/><path fill="#f6416c" d="M 192.089844 87.832031 C 192.089844 88.765625 191.328125 89.523438 190.394531 89.523438 C 189.460938 89.523438 188.703125 88.765625 188.703125 87.832031 C 188.703125 86.898438 189.460938 86.140625 190.394531 86.140625 C 191.339844 86.140625 192.089844 86.898438 192.089844 87.832031 Z M 139.183594 89.386719 C 138.25 89.386719 137.492188 90.144531 137.492188 91.078125 C 137.492188 92.011719 138.25 92.769531 139.183594 92.769531 C 140.117188 92.769531 140.875 92.011719 140.875 91.078125 C 140.875 90.144531 140.117188 89.386719 139.183594 89.386719 Z M 139.183594 89.386719 " fill-opacity="1" fill-rule="nonzero"/></svg>