<svg xmlns="http://www.w3.org/2000/svg" xmlns:xlink="http://www.w3.org/1999/xlink" width="600" zoomAndPan="magnify" viewBox="0 0 450 449.999984" height="600" preserveAspectRatio="xMidYMid meet" version="1.0"><path fill="#c2d8ff" d="M 87.042969 306.179688 L 75.453125 306.179688 C 63.542969 306.179688 53.878906 296.515625 53.878906 284.601562 L 53.878906 232.109375 C 53.878906 220.195312 63.542969 210.53125 75.453125 210.53125 L 87.042969 210.53125 C 98.957031 210.53125 108.621094 220.195312 108.621094 232.109375 L 108.621094 284.601562 C 108.609375 296.515625 98.957031 306.179688 87.042969 306.179688 Z M 87.042969 306.179688 " fill-opacity="1" fill-rule="nonzero"/><path fill="#403934" d="M 148.441406 26.144531 C 156.355469 47.316406 163.34375 104.515625 147.507812 149.277344 C 131.675781 194.042969 63.457031 145.566406 76.214844 117.929688 C 88.972656 90.292969 65.070312 45.371094 83.976562 22.679688 C 102.886719 -0.0078125 123.542969 12.085938 123.542969 12.085938 C 123.542969 12.085938 140.523438 4.976562 148.441406 26.144531 Z M 148.441406 26.144531 " fill-opacity="1" fill-rule="nonzero"/><path fill="#d69a6c" d="M 100.511719 135.191406 C 99.859375 145.128906 66.265625 163.910156 66.265625 163.910156 C 66.265625 163.910156 81.027344 187.40625 85.628906 191.726562 C 90.234375 196.042969 98.765625 209.660156 76.792969 201.257812 C 54.816406 192.855469 36.707031 168.644531 36.222656 161.609375 C 35.738281 154.574219 63.371094 126.730469 63.371094 126.730469 C 86.140625 113.390625 101.167969 125.25 100.511719 135.191406 Z M 100.511719 135.191406 " fill-opacity="1" fill-rule="nonzero"/><path fill="#d69a6c" d="M 138.664062 88.839844 C 138.664062 88.839844 118.957031 108.132812 101.984375 97.757812 C 101.984375 97.757812 104.167969 93.816406 104.167969 87.324219 C 104.167969 86.886719 104.160156 86.441406 104.140625 85.976562 C 104.09375 84.976562 103.988281 83.925781 103.816406 82.824219 C 103.816406 82.8125 103.816406 82.8125 103.816406 82.804688 C 101.226562 82.128906 98.765625 81.058594 96.507812 79.605469 C 92.9375 77.316406 89.882812 74.125 87.566406 70.320312 C 84.605469 65.429688 82.859375 59.507812 82.859375 53.136719 C 82.859375 36.324219 94.953125 22.679688 109.871094 22.679688 C 124.792969 22.679688 136.886719 36.324219 136.886719 53.136719 C 136.886719 58.964844 135.417969 64.414062 132.902344 69.039062 C 132.949219 69.410156 132.996094 69.789062 133.042969 70.1875 C 133.082031 70.460938 133.121094 70.738281 133.15625 71.023438 C 134.03125 77.335938 135.769531 86.515625 138.664062 88.839844 Z M 138.664062 88.839844 " fill-opacity="1" fill-rule="nonzero"/><path fill="#403934" d="M 107.792969 387.890625 C 102.175781 392.050781 97.515625 397.242188 94.769531 400.613281 C 92.902344 402.910156 90.308594 404.515625 87.414062 405.191406 L 76.8125 407.65625 C 52.464844 412.023438 53.652344 398.773438 62.375 394.082031 C 68.953125 390.550781 82.023438 375.710938 88.058594 368.628906 C 90.121094 366.207031 91.238281 363.140625 91.238281 359.972656 L 91.238281 347.621094 C 91.238281 346.71875 91.304688 345.816406 91.503906 344.941406 C 92.683594 339.757812 96.089844 338.269531 99.878906 338.429688 C 107.433594 338.742188 113.035156 345.636719 112.246094 353.15625 C 111.988281 355.605469 111.722656 358.121094 111.503906 360.199219 C 111.238281 362.742188 111.601562 365.335938 112.71875 367.625 C 113.851562 369.929688 114.371094 372.597656 114.582031 375.09375 C 114.828125 378.039062 114.078125 380.933594 112.53125 383.335938 L 112.53125 400.707031 C 112.53125 402.019531 111.46875 403.082031 110.15625 403.082031 C 108.847656 403.082031 107.785156 402.019531 107.785156 400.707031 L 107.785156 387.890625 Z M 164.292969 389.03125 C 164.082031 386.523438 163.5625 383.859375 162.429688 381.558594 C 161.3125 379.261719 160.949219 376.671875 161.214844 374.136719 C 161.433594 372.058594 161.699219 369.542969 161.957031 367.089844 L 165.726562 334.859375 L 141.007812 337.28125 L 141.007812 360.570312 C 140.980469 360.96875 140.960938 361.367188 140.960938 361.765625 L 140.960938 373.90625 C 140.960938 377.078125 139.832031 380.15625 137.78125 382.566406 C 131.753906 389.648438 118.671875 404.488281 112.09375 408.019531 C 103.371094 412.707031 102.183594 425.953125 126.53125 421.59375 L 137.132812 419.125 C 140.019531 418.453125 142.621094 416.859375 144.492188 414.550781 C 147.234375 411.179688 151.894531 405.988281 157.515625 401.828125 L 157.515625 414.636719 C 157.515625 415.945312 158.578125 417.007812 159.886719 417.007812 C 161.195312 417.007812 162.261719 415.945312 162.261719 414.636719 L 162.261719 397.261719 C 163.777344 394.859375 164.527344 391.964844 164.292969 389.03125 Z M 164.292969 389.03125 " fill-opacity="1" fill-rule="nonzero"/><path fill="#403934" d="M 119.800781 24.808594 C 119.800781 24.808594 109.285156 42.410156 83.019531 49.890625 C 83.019531 49.890625 80.199219 18.949219 119.070312 18.339844 C 119.070312 18.339844 136.699219 28.5 136.898438 46.566406 C 136.886719 46.574219 123.105469 36.238281 119.800781 24.808594 Z M 119.800781 24.808594 " fill-opacity="1" fill-rule="nonzero"/><path fill="#d69a6c" d="M 145.734375 56.363281 C 142.847656 61.824219 137.496094 64.652344 133.765625 62.675781 C 130.035156 60.703125 129.351562 54.683594 132.238281 49.226562 C 135.121094 43.765625 140.476562 40.9375 144.207031 42.910156 C 147.9375 44.886719 148.621094 50.914062 145.734375 56.363281 Z M 145.734375 56.363281 " fill-opacity="1" fill-rule="nonzero"/><path fill="#7fb39c" d="M 152.386719 194.488281 C 132.652344 197.839844 100.929688 189.835938 100.929688 189.835938 C 100.929688 189.835938 88.507812 195.890625 82.859375 189.835938 C 77.21875 183.777344 73.71875 157.359375 73.71875 157.359375 C 62.6875 155.914062 55.292969 144.339844 52.253906 138.558594 C 51.230469 136.613281 51.496094 134.25 52.9375 132.589844 C 55.292969 129.902344 60.085938 124.605469 69.835938 114.207031 C 88.25 94.574219 101.984375 97.757812 101.984375 97.757812 L 103.816406 89.640625 C 122.042969 92.941406 134.875 80.335938 134.875 80.335938 L 138.664062 88.839844 C 157.257812 91.59375 173.300781 98.933594 173.300781 98.933594 C 198.007812 117.125 172.121094 191.136719 152.386719 194.488281 Z M 152.386719 194.488281 " fill-opacity="1" fill-rule="nonzero"/><path fill="#403934" d="M 122.402344 49.910156 C 122.402344 51.75 120.914062 53.242188 119.070312 53.242188 C 117.230469 53.242188 115.738281 51.75 115.738281 49.910156 C 115.738281 48.066406 117.230469 46.574219 119.070312 46.574219 C 120.902344 46.574219 122.402344 48.066406 122.402344 49.910156 Z M 96.984375 54.207031 C 95.140625 54.207031 93.652344 55.699219 93.652344 57.542969 C 93.652344 59.382812 95.140625 60.875 96.984375 60.875 C 98.824219 60.875 100.3125 59.382812 100.3125 57.542969 C 100.3125 55.699219 98.824219 54.207031 96.984375 54.207031 Z M 109.9375 66.132812 C 110.195312 66.09375 110.386719 65.859375 110.347656 65.601562 C 110.320312 65.34375 110.082031 65.164062 109.816406 65.191406 C 109.789062 65.191406 107.207031 65.507812 106.277344 64.0625 C 105.582031 62.980469 106.597656 60.085938 107.40625 58.507812 C 107.527344 58.273438 107.433594 57.988281 107.195312 57.875 C 106.957031 57.75 106.675781 57.84375 106.558594 58.082031 C 106.324219 58.546875 104.253906 62.695312 105.476562 64.585938 C 106.371094 65.972656 108.183594 66.179688 109.207031 66.179688 C 109.617188 66.171875 109.902344 66.132812 109.9375 66.132812 Z M 123.949219 63.292969 C 124.082031 63.066406 124.007812 62.78125 123.777344 62.648438 C 123.550781 62.515625 123.265625 62.589844 123.132812 62.820312 C 123.078125 62.925781 117.125 72.808594 105.308594 71.726562 C 105.050781 71.707031 104.8125 71.894531 104.792969 72.152344 C 104.777344 72.410156 104.964844 72.644531 105.222656 72.664062 C 105.867188 72.722656 106.492188 72.75 107.109375 72.75 C 118.292969 72.757812 123.894531 63.398438 123.949219 63.292969 Z M 109.871094 42.425781 C 109.929688 42.390625 115.871094 38.933594 121.964844 42.085938 C 122.429688 42.324219 123 42.140625 123.246094 41.675781 C 123.484375 41.210938 123.304688 40.640625 122.839844 40.394531 C 115.777344 36.742188 109.171875 40.632812 108.894531 40.804688 C 108.449219 41.070312 108.308594 41.660156 108.574219 42.105469 C 108.753906 42.398438 109.066406 42.570312 109.390625 42.570312 C 109.550781 42.558594 109.722656 42.511719 109.871094 42.425781 Z M 88.335938 52.640625 C 90.699219 48.503906 95.917969 48.550781 96.023438 48.550781 C 96.554688 48.597656 96.984375 48.152344 96.992188 47.628906 C 97 47.109375 96.59375 46.671875 96.070312 46.660156 C 95.816406 46.652344 89.625 46.558594 86.683594 51.710938 C 86.425781 52.167969 86.578125 52.746094 87.035156 53.003906 C 87.1875 53.089844 87.347656 53.125 87.507812 53.125 C 87.839844 53.125 88.15625 52.957031 88.335938 52.640625 Z M 109.871094 83.589844 C 107.792969 83.589844 105.761719 83.324219 103.816406 82.824219 C 103.988281 83.925781 104.09375 84.976562 104.140625 85.976562 C 107.394531 87.324219 111.230469 87.855469 115.226562 87.304688 C 124.785156 85.992188 131.808594 78.957031 131.570312 71.277344 C 126.644531 78.75 118.757812 83.589844 109.871094 83.589844 Z M 136.394531 49.640625 C 137.648438 47.839844 139.070312 46.8125 140.648438 46.566406 C 142.867188 46.226562 144.660156 47.601562 144.679688 47.609375 C 144.890625 47.773438 145.183594 47.734375 145.34375 47.523438 C 145.507812 47.316406 145.46875 47.023438 145.269531 46.859375 C 145.183594 46.792969 143.152344 45.21875 140.523438 45.617188 C 138.671875 45.890625 137.03125 47.058594 135.617188 49.089844 C 135.464844 49.308594 135.519531 49.605469 135.738281 49.757812 C 135.824219 49.8125 135.917969 49.839844 136.003906 49.839844 C 136.15625 49.839844 136.300781 49.773438 136.394531 49.640625 Z M 130.355469 99.75 C 130.605469 99.65625 130.71875 99.378906 130.621094 99.132812 C 130.527344 98.886719 130.253906 98.773438 130.007812 98.867188 C 129.824219 98.933594 112.292969 105.636719 102.277344 97.394531 C 102.078125 97.226562 101.777344 97.253906 101.613281 97.460938 C 101.445312 97.660156 101.472656 97.964844 101.679688 98.125 C 105.726562 101.457031 110.839844 102.492188 115.625 102.492188 C 123.179688 102.492188 129.902344 99.921875 130.355469 99.75 Z M 124.992188 189.046875 C 125.03125 188.792969 124.851562 188.542969 124.585938 188.515625 C 101.785156 185.308594 93.121094 176.714844 93.035156 176.628906 C 92.851562 176.441406 92.550781 176.441406 92.359375 176.621094 C 92.171875 176.800781 92.171875 177.105469 92.351562 177.292969 C 92.703125 177.65625 101.28125 186.199219 124.453125 189.457031 C 124.472656 189.457031 124.5 189.457031 124.519531 189.457031 C 124.757812 189.457031 124.964844 189.285156 124.992188 189.046875 Z M 73.773438 157.832031 C 74.03125 157.792969 74.21875 157.558594 74.183594 157.300781 C 71.894531 139.605469 80.5625 126.730469 80.644531 126.609375 C 80.796875 126.390625 80.742188 126.09375 80.523438 125.941406 C 80.304688 125.792969 80.011719 125.847656 79.859375 126.066406 C 79.773438 126.199219 70.898438 139.359375 73.234375 157.425781 C 73.261719 157.660156 73.46875 157.839844 73.707031 157.839844 C 73.734375 157.832031 73.753906 157.832031 73.773438 157.832031 Z M 73.773438 157.832031 " fill-opacity="1" fill-rule="nonzero"/><path fill="#ede6dd" d="M 169.113281 188.070312 L 182.648438 341.410156 C 175.984375 350.136719 158.359375 352.074219 158.359375 352.074219 C 143.019531 359.042969 126.949219 356.601562 126.949219 356.601562 C 113.375 356.601562 102.714844 349.492188 102.714844 349.492188 C 88.171875 349.492188 74.277344 338.089844 74.277344 338.089844 C 68.136719 277.558594 82.859375 189.835938 82.859375 189.835938 Z M 169.113281 188.070312 " fill-opacity="1" fill-rule="nonzero"/><path fill="#403934" d="M 102.714844 349.964844 C 102.460938 349.964844 102.25 349.765625 102.242188 349.507812 C 102.203125 348.625 98.398438 260.496094 100.949219 214.574219 C 100.96875 214.308594 101.1875 214.109375 101.453125 214.128906 C 101.71875 214.148438 101.917969 214.367188 101.898438 214.632812 C 99.347656 260.507812 103.152344 348.589844 103.191406 349.472656 C 103.199219 349.738281 103 349.957031 102.734375 349.964844 C 102.734375 349.964844 102.726562 349.964844 102.714844 349.964844 Z M 129.058594 357.019531 C 129.058594 356.136719 128.992188 267.691406 123.550781 203.574219 C 123.53125 203.308594 123.296875 203.117188 123.039062 203.136719 C 122.773438 203.15625 122.582031 203.390625 122.601562 203.648438 C 128.03125 267.730469 128.097656 356.125 128.097656 357.007812 C 128.097656 357.273438 128.308594 357.484375 128.574219 357.484375 C 128.839844 357.492188 129.058594 357.285156 129.058594 357.019531 Z M 158.378906 352.558594 C 158.644531 352.546875 158.84375 352.328125 158.832031 352.0625 C 158.796875 351.140625 155.085938 259.128906 152.539062 227.109375 C 152.519531 226.839844 152.292969 226.652344 152.027344 226.671875 C 151.761719 226.691406 151.570312 226.917969 151.589844 227.183594 C 154.144531 259.1875 157.847656 351.171875 157.882812 352.101562 C 157.894531 352.359375 158.101562 352.558594 158.359375 352.558594 C 158.367188 352.558594 158.378906 352.558594 158.378906 352.558594 Z M 68.894531 220.148438 C 102.03125 198.609375 121.898438 164.554688 132.730469 139.773438 C 144.453125 112.957031 148.410156 90.902344 148.449219 90.683594 C 148.542969 90.171875 148.191406 89.675781 147.679688 89.582031 C 147.160156 89.488281 146.675781 89.839844 146.578125 90.351562 C 146.542969 90.570312 142.613281 112.433594 130.972656 139.054688 C 120.246094 163.574219 100.589844 197.277344 67.859375 218.554688 C 67.421875 218.839844 67.300781 219.425781 67.585938 219.863281 C 67.765625 220.140625 68.070312 220.300781 68.382812 220.300781 C 68.554688 220.300781 68.734375 220.242188 68.894531 220.148438 Z M 68.894531 220.148438 " fill-opacity="1" fill-rule="nonzero"/><path fill="#d69a6c" d="M 268.164062 386.050781 C 268.828125 370.59375 261.757812 368.609375 264.347656 356.808594 C 265.496094 351.578125 268.394531 348.757812 270.660156 347.308594 C 270.671875 347.308594 270.671875 347.308594 270.671875 347.308594 C 272.359375 346.214844 273.707031 345.890625 273.707031 345.890625 L 278.019531 335.003906 L 296.214844 345.3125 C 296.214844 345.3125 290.566406 352.519531 289.742188 354.875 C 289.34375 355.984375 291.03125 363.636719 292.339844 372.332031 C 292.351562 372.339844 292.351562 372.339844 292.351562 372.339844 C 293.785156 381.875 294.761719 392.675781 292.09375 397.574219 C 288.953125 403.300781 267.5 401.515625 268.164062 386.050781 Z M 371.867188 427.074219 C 370.472656 420.492188 361.101562 411.390625 352.324219 403.792969 C 352.324219 403.792969 352.324219 403.792969 352.3125 403.792969 C 344.292969 396.863281 336.753906 391.195312 336.242188 389.867188 C 335.152344 387.074219 334.667969 376.054688 334.667969 376.054688 L 309.949219 380.894531 L 314.554688 394.234375 C 314.554688 394.234375 313.574219 395.582031 312.882812 397.90625 C 312.882812 397.90625 312.882812 397.90625 312.875 397.917969 C 311.941406 401.023438 311.507812 405.875 314.554688 411.558594 C 321.433594 424.386719 329.457031 420.65625 340.96875 435.3125 C 352.484375 449.980469 373.5 434.78125 371.867188 427.074219 Z M 371.867188 427.074219 " fill-opacity="1" fill-rule="nonzero"/><path fill="#403934" d="M 294.554688 390.53125 C 295.105469 401.476562 290.0625 406.433594 276.574219 401.621094 C 263.078125 396.808594 263.097656 382.109375 264.101562 378.304688 C 265.117188 374.496094 263.265625 368.609375 263.265625 368.609375 L 262.15625 362.800781 C 262.015625 362.058594 262.003906 361.292969 262.109375 360.550781 C 263.542969 350.449219 269.863281 347.867188 269.863281 347.867188 C 268.660156 357.140625 273.605469 368.457031 273.605469 368.457031 C 285.214844 367.28125 292.351562 372.332031 292.351562 372.332031 C 292.351562 372.332031 294.003906 379.585938 294.554688 390.53125 Z M 352.324219 403.792969 C 352.324219 403.792969 341.832031 404.773438 332.140625 414.957031 C 332.140625 414.957031 318.75 408.484375 312.578125 399.058594 C 312.578125 399.058594 308.820312 406.367188 315.425781 416.734375 C 315.921875 417.503906 316.527344 418.195312 317.238281 418.757812 L 322.8125 423.199219 C 322.8125 423.199219 329.113281 427.128906 331.175781 431.410156 C 333.234375 435.691406 344.746094 449.136719 360.867188 442.957031 C 376.984375 436.773438 377.703125 428.289062 368.621094 418.71875 C 359.535156 409.148438 352.324219 403.792969 352.324219 403.792969 Z M 352.324219 403.792969 " fill-opacity="1" fill-rule="nonzero"/><path fill="#d69a6c" d="M 388.449219 181.585938 C 388.449219 181.585938 414.183594 233.402344 367.167969 242.136719 C 320.152344 250.871094 351.335938 159.339844 388.449219 181.585938 Z M 388.449219 181.585938 " fill-opacity="1" fill-rule="nonzero"/><path fill="#7fb39c" d="M 342.507812 320.335938 C 342.507812 320.335938 343.363281 359.589844 341.332031 374.058594 C 341.101562 375.691406 340.152344 377.125 338.738281 377.960938 C 334.078125 380.714844 322.308594 386.46875 307.984375 384.511719 C 306.144531 384.257812 304.585938 383.03125 303.847656 381.324219 C 302.375 377.941406 299.652344 371.523438 296.308594 363.007812 C 276.089844 365.089844 268.382812 349.90625 265.878906 342.570312 C 265.109375 340.328125 265.628906 337.839844 267.207031 336.066406 L 281.320312 320.109375 C 269.019531 279.882812 259.28125 230.496094 273.699219 202.804688 C 300.742188 150.863281 365.859375 167.109375 367.339844 225.691406 C 367.347656 226.101562 367.40625 226.5 367.5 226.890625 C 369.113281 233.070312 382.460938 288.910156 342.507812 320.335938 Z M 342.507812 320.335938 " fill-opacity="1" fill-rule="nonzero"/><path fill="#ede6dd" d="M 401.046875 169.652344 C 402.023438 172.460938 400.886719 175.558594 398.320312 177.066406 C 389.769531 182.089844 381.21875 183.625 381.21875 183.625 C 380.257812 202.707031 373.089844 218.03125 370.128906 223.625 C 369.371094 225.058594 367.996094 226.0625 366.398438 226.347656 C 306.144531 236.914062 272.378906 222.777344 270.945312 206.753906 C 269.492188 190.507812 236.375 154.558594 266.675781 124.984375 C 296.972656 95.410156 330.71875 105.875 330.71875 105.875 C 374.953125 105.019531 395.625 154.160156 401.046875 169.652344 Z M 401.046875 169.652344 " fill-opacity="1" fill-rule="nonzero"/><path fill="#d69a6c" d="M 361.472656 71.914062 C 361.472656 83.980469 356.289062 94.785156 347.929688 100.5 C 347.433594 100.839844 346.921875 101.164062 346.410156 101.457031 C 345.261719 102.132812 344.046875 102.710938 342.792969 103.1875 C 342.792969 103.1875 342.792969 103.195312 342.792969 103.207031 C 342.878906 104.125 342.964844 104.980469 343.058594 105.730469 C 343.058594 105.742188 343.058594 105.742188 343.058594 105.75 C 343.257812 107.476562 343.464844 108.757812 343.570312 109.414062 C 343.628906 109.746094 343.589844 110.070312 343.464844 110.382812 C 341.167969 116.191406 335.398438 128.667969 332.757812 134.308594 C 332.179688 135.558594 330.480469 135.730469 329.636719 134.640625 C 324.121094 127.460938 311.070312 114.273438 306.902344 110.109375 C 306.238281 109.441406 306.179688 108.378906 306.777344 107.660156 C 309.769531 104.078125 312.511719 96.207031 312.511719 96.207031 C 311.078125 95.164062 309.769531 93.996094 308.753906 92.695312 C 304.199219 86.867188 301.367188 79.976562 301.367188 71.914062 C 301.367188 54.074219 315.976562 39.609375 332.160156 39.609375 C 348.34375 39.609375 361.472656 54.074219 361.472656 71.914062 Z M 361.472656 71.914062 " fill-opacity="1" fill-rule="nonzero"/><path fill="#403934" d="M 307.425781 61.917969 C 306.816406 67.859375 297.941406 80.675781 291.070312 63.492188 C 282.097656 41.070312 306.410156 34.40625 306.410156 34.40625 C 310.777344 17.925781 332.777344 24.207031 346.570312 30.523438 C 360.867188 37.0625 370.445312 34.40625 372.140625 44.097656 C 373.839844 53.792969 365.355469 60.742188 349 59.773438 C 332.644531 58.804688 319.25 42.757812 319.25 42.757812 C 319.183594 57.425781 307.425781 61.917969 307.425781 61.917969 Z M 307.425781 61.917969 " fill-opacity="1" fill-rule="nonzero"/><path fill="#d69a6c" d="M 304.292969 73.652344 C 307.804688 78.875 308.03125 84.863281 304.8125 87.027344 C 301.597656 89.191406 296.136719 86.714844 292.625 81.492188 C 289.113281 76.273438 288.886719 70.28125 292.105469 68.117188 C 295.332031 65.953125 300.789062 68.429688 304.292969 73.652344 Z M 304.292969 73.652344 " fill-opacity="1" fill-rule="nonzero"/><path fill="#403934" d="M 341.433594 258.359375 L 342.984375 320.324219 C 342.992188 320.589844 342.78125 320.808594 342.515625 320.808594 C 342.515625 320.808594 342.507812 320.808594 342.507812 320.808594 C 342.25 320.808594 342.042969 320.601562 342.035156 320.34375 L 340.484375 258.378906 C 340.476562 258.113281 340.683594 257.894531 340.949219 257.894531 C 340.949219 257.894531 340.960938 257.894531 340.960938 257.894531 C 341.21875 257.894531 341.425781 258.105469 341.433594 258.359375 Z M 281.75 319.945312 C 281.664062 319.699219 281.386719 319.574219 281.140625 319.660156 C 280.894531 319.746094 280.761719 320.023438 280.855469 320.269531 L 295.757812 361.925781 C 295.824219 362.125 296.015625 362.242188 296.203125 362.242188 C 296.261719 362.242188 296.308594 362.230469 296.367188 362.210938 C 296.613281 362.125 296.746094 361.851562 296.652344 361.605469 Z M 328.128906 136.898438 C 324.546875 139.910156 314.488281 147.476562 311.003906 146.34375 C 307.878906 145.339844 302.914062 125.042969 300.335938 111.644531 C 300.285156 111.390625 300.039062 111.21875 299.773438 111.265625 C 299.519531 111.3125 299.347656 111.558594 299.394531 111.824219 C 300.058594 115.292969 306.046875 145.757812 310.699219 147.257812 C 311.011719 147.359375 311.363281 147.410156 311.734375 147.410156 C 317.050781 147.410156 328.222656 138.066406 328.726562 137.640625 C 328.925781 137.46875 328.953125 137.175781 328.78125 136.976562 C 328.628906 136.757812 328.328125 136.726562 328.128906 136.898438 Z M 350.859375 111.257812 C 350.605469 111.292969 350.425781 111.53125 350.460938 111.796875 C 350.5 112.0625 354.296875 138.542969 352.4375 142.890625 C 352.292969 143.222656 352.039062 143.429688 351.640625 143.554688 C 348.277344 144.550781 337.695312 138.246094 333.90625 135.730469 C 333.691406 135.589844 333.394531 135.644531 333.253906 135.863281 C 333.109375 136.082031 333.167969 136.375 333.386719 136.519531 C 333.917969 136.871094 345.621094 144.597656 350.851562 144.597656 C 351.242188 144.597656 351.601562 144.550781 351.914062 144.464844 C 352.589844 144.265625 353.054688 143.859375 353.308594 143.269531 C 355.273438 138.675781 351.5625 112.765625 351.402344 111.664062 C 351.363281 111.398438 351.117188 111.21875 350.859375 111.257812 Z M 341.882812 182.542969 C 341.890625 182.542969 341.910156 182.542969 341.917969 182.542969 C 342.175781 182.523438 342.375 182.289062 342.355469 182.03125 C 340.601562 161.421875 334.164062 139.292969 334.097656 139.074219 C 334.023438 138.824219 333.765625 138.675781 333.507812 138.75 C 333.261719 138.824219 333.109375 139.089844 333.1875 139.339844 C 333.253906 139.558594 339.660156 161.601562 341.40625 182.117188 C 341.433594 182.355469 341.632812 182.542969 341.882812 182.542969 Z M 371.308594 145.707031 C 371.15625 145.492188 370.859375 145.441406 370.644531 145.59375 C 370.425781 145.746094 370.375 146.042969 370.527344 146.257812 C 370.625 146.390625 379.832031 159.796875 380.722656 183.636719 C 380.734375 183.890625 380.941406 184.089844 381.199219 184.089844 C 381.207031 184.089844 381.207031 184.089844 381.21875 184.089844 C 381.484375 184.082031 381.683594 183.863281 381.671875 183.597656 C 380.769531 159.484375 371.402344 145.851562 371.308594 145.707031 Z M 373.453125 140.628906 C 373.492188 140.640625 373.519531 140.640625 373.546875 140.640625 C 373.765625 140.640625 373.964844 140.488281 374.011719 140.257812 C 375.113281 135.074219 378.75 129.484375 378.785156 129.4375 C 378.929688 129.21875 378.871094 128.925781 378.652344 128.78125 C 378.4375 128.640625 378.140625 128.695312 378 128.914062 C 377.847656 129.152344 374.230469 134.707031 373.089844 140.070312 C 373.035156 140.324219 373.195312 140.574219 373.453125 140.628906 Z M 373.453125 140.628906 " fill-opacity="1" fill-rule="nonzero"/><path fill="#d69a6c" d="M 359.328125 204.796875 C 353.992188 211.101562 337.761719 210.398438 337.761719 210.398438 C 337.761719 210.398438 325.507812 217.691406 313.472656 223.726562 C 312.292969 224.324219 311.117188 224.90625 309.960938 225.457031 C 304.234375 228.21875 298.84375 230.476562 295.1875 231.304688 C 283.210938 233.992188 268.25 210.398438 268.25 210.398438 L 269.683594 201.445312 C 284.253906 195.855469 310.964844 194.726562 323.117188 194.507812 C 322.382812 191.136719 321.710938 186.191406 323.296875 183.617188 C 325.082031 180.722656 329.808594 181.109375 332.503906 181.613281 C 333.691406 179.875 335.046875 178.691406 336.386719 178.652344 C 340.589844 178.507812 340.382812 182.058594 340.382812 182.058594 C 340.382812 182.058594 340.78125 178.984375 344.113281 178.976562 C 347.453125 178.964844 347.691406 182.828125 347.691406 182.828125 C 347.691406 182.828125 349.875 180.074219 352.625 180.722656 C 355.371094 181.359375 355.617188 184.925781 355.617188 184.925781 C 355.617188 184.925781 357.714844 181.613281 359.972656 183.617188 C 362.640625 185.972656 364.664062 198.503906 359.328125 204.796875 Z M 359.328125 204.796875 " fill-opacity="1" fill-rule="nonzero"/><path fill="#403934" d="M 354.960938 195.988281 C 354.886719 195.988281 354.808594 195.96875 354.734375 195.929688 C 354.507812 195.808594 354.421875 195.511719 354.542969 195.285156 C 356.300781 192.074219 355.160156 185.078125 355.152344 185.003906 C 355.105469 184.746094 355.285156 184.5 355.539062 184.453125 C 355.796875 184.414062 356.042969 184.585938 356.089844 184.839844 C 356.136719 185.144531 357.296875 192.238281 355.378906 195.730469 C 355.285156 195.902344 355.121094 195.988281 354.960938 195.988281 Z M 347.796875 194.523438 C 350.195312 189.96875 348.242188 182.992188 348.15625 182.695312 C 348.078125 182.449219 347.824219 182.296875 347.566406 182.375 C 347.3125 182.449219 347.167969 182.707031 347.246094 182.960938 C 347.261719 183.027344 349.179688 189.863281 346.960938 194.078125 C 346.835938 194.308594 346.921875 194.601562 347.160156 194.726562 C 347.226562 194.761719 347.300781 194.78125 347.378906 194.78125 C 347.546875 194.773438 347.710938 194.6875 347.796875 194.523438 Z M 339.375 194.5625 C 341.785156 190.90625 340.847656 181.71875 340.808594 181.328125 C 340.78125 181.074219 340.550781 180.875 340.285156 180.910156 C 340.03125 180.941406 339.839844 181.167969 339.867188 181.433594 C 339.878906 181.527344 340.808594 190.671875 338.585938 194.050781 C 338.445312 194.269531 338.503906 194.5625 338.71875 194.707031 C 338.796875 194.761719 338.890625 194.78125 338.984375 194.78125 C 339.128906 194.773438 339.28125 194.695312 339.375 194.5625 Z M 328.820312 191.355469 C 329.609375 190.28125 332.398438 183.066406 332.710938 182.242188 C 332.808594 181.992188 332.683594 181.71875 332.4375 181.625 C 332.191406 181.527344 331.914062 181.652344 331.820312 181.898438 C 330.59375 185.070312 328.582031 190.054688 328.050781 190.792969 C 327.898438 191.003906 327.9375 191.308594 328.15625 191.457031 C 328.242188 191.523438 328.335938 191.554688 328.441406 191.554688 C 328.582031 191.542969 328.726562 191.476562 328.820312 191.355469 Z M 301.652344 75.996094 C 301.863281 75.84375 301.917969 75.550781 301.765625 75.332031 C 300.117188 73.035156 298.320312 71.761719 296.433594 71.554688 C 294.230469 71.316406 292.757812 72.617188 292.703125 72.664062 C 292.503906 72.835938 292.492188 73.140625 292.664062 73.339844 C 292.835938 73.539062 293.140625 73.546875 293.339844 73.375 C 293.347656 73.367188 294.554688 72.304688 296.335938 72.492188 C 297.953125 72.675781 299.519531 73.8125 301.007812 75.882812 C 301.101562 76.015625 301.246094 76.082031 301.398438 76.082031 C 301.472656 76.082031 301.566406 76.054688 301.652344 75.996094 Z M 342.792969 103.207031 C 340.070312 104.25 337.105469 104.820312 333.964844 104.820312 C 329.730469 104.820312 326.597656 104.203125 322.8125 102.425781 C 320.921875 101.535156 318.785156 100.175781 316.453125 98.734375 C 317.914062 105.007812 324.28125 109.746094 331.925781 109.746094 C 336.261719 109.746094 340.203125 108.21875 343.058594 105.730469 C 342.964844 104.980469 342.878906 104.125 342.792969 103.207031 Z M 347.558594 86.429688 C 347.777344 86.289062 347.832031 85.992188 347.691406 85.773438 C 347.539062 85.558594 347.246094 85.5 347.035156 85.640625 C 336.519531 92.734375 325.347656 86.183594 325.230469 86.117188 C 325.003906 85.984375 324.71875 86.058594 324.578125 86.277344 C 324.445312 86.507812 324.511719 86.792969 324.738281 86.933594 C 324.8125 86.980469 329.761719 89.894531 336.242188 89.894531 C 339.746094 89.886719 343.695312 89.03125 347.558594 86.429688 Z M 342.601562 79.242188 C 342.601562 77.257812 342.070312 75.84375 341.015625 75.039062 C 339.601562 73.945312 337.800781 74.402344 337.722656 74.421875 C 337.46875 74.488281 337.324219 74.742188 337.382812 75 C 337.4375 75.257812 337.703125 75.410156 337.960938 75.339844 C 337.96875 75.339844 339.394531 74.992188 340.4375 75.796875 C 341.246094 76.425781 341.652344 77.582031 341.652344 79.253906 C 341.652344 79.519531 341.863281 79.726562 342.128906 79.726562 C 342.394531 79.726562 342.601562 79.507812 342.601562 79.242188 Z M 320.742188 65.507812 C 318.585938 65.507812 316.839844 67.253906 316.839844 69.410156 C 316.839844 71.5625 318.585938 73.308594 320.742188 73.308594 C 322.898438 73.308594 324.644531 71.5625 324.644531 69.410156 C 324.644531 67.253906 322.898438 65.507812 320.742188 65.507812 Z M 346.464844 65.734375 C 344.3125 65.734375 342.566406 67.480469 342.566406 69.636719 C 342.566406 71.792969 344.3125 73.539062 346.464844 73.539062 C 348.621094 73.539062 350.367188 71.792969 350.367188 69.636719 C 350.367188 67.480469 348.621094 65.734375 346.464844 65.734375 Z M 321.425781 57.207031 C 317.667969 57.65625 314.761719 59.15625 314.921875 60.578125 C 315.09375 61.992188 318.273438 62.792969 322.023438 62.34375 C 325.773438 61.898438 328.6875 60.398438 328.527344 58.976562 C 328.363281 57.558594 325.183594 56.761719 321.425781 57.207031 Z M 348.410156 57.191406 C 344.632812 56.980469 341.511719 57.957031 341.425781 59.390625 C 341.351562 60.816406 344.339844 62.144531 348.117188 62.355469 C 351.894531 62.5625 355.019531 61.585938 355.105469 60.152344 C 355.179688 58.726562 352.191406 57.410156 348.410156 57.191406 Z M 348.410156 57.191406 " fill-opacity="1" fill-rule="nonzero"/><path fill="#c2d8ff" d="M 304.273438 87.125 C 304.273438 88.992188 302.753906 90.511719 300.882812 90.511719 C 299.015625 90.511719 297.496094 88.992188 297.496094 87.125 C 297.496094 85.253906 299.015625 83.734375 300.882812 83.734375 C 302.753906 83.734375 304.273438 85.253906 304.273438 87.125 Z M 304.273438 87.125 " fill-opacity="1" fill-rule="nonzero"/><path fill="#ede6dd" d="M 268.941406 402.609375 C 282.765625 416.429688 276.269531 422.429688 267.28125 427.757812 C 258.292969 433.082031 242.972656 434.144531 239.867188 419.980469 C 236.773438 405.824219 228.277344 404.753906 225.449219 389.925781 C 222.621094 375.09375 232.96875 370.121094 232.96875 370.121094 C 247.957031 365.125 256.15625 389.820312 268.941406 402.609375 Z M 167.9375 402.609375 C 154.117188 416.429688 160.609375 422.429688 169.597656 427.757812 C 178.585938 433.082031 193.90625 434.144531 197.011719 419.980469 C 200.105469 405.824219 208.601562 404.753906 211.429688 389.925781 C 214.257812 375.09375 203.914062 370.121094 203.914062 370.121094 C 188.914062 365.125 180.722656 389.820312 167.9375 402.609375 Z M 167.9375 402.609375 " fill-opacity="1" fill-rule="nonzero"/><path fill="#d69a6c" d="M 250.679688 360.53125 C 249.769531 367.507812 248.992188 373.253906 248.527344 376.660156 C 248.089844 379.898438 245.894531 382.726562 242.753906 383.65625 C 239.839844 384.523438 237.164062 383.601562 235.054688 382.261719 C 232.285156 380.496094 230.839844 377.242188 231.25 373.972656 C 231.640625 370.917969 231.914062 365.867188 231.382812 358.121094 C 231.308594 357.027344 231.210938 355.871094 231.097656 354.664062 C 229.558594 337.832031 229.777344 298.890625 229.808594 295.441406 C 229.808594 295.273438 229.808594 295.109375 229.816406 294.941406 C 230.964844 272.933594 256.308594 277.632812 257.4375 291.152344 C 258.199219 300.265625 253.707031 337.234375 250.679688 360.53125 Z M 186.191406 360.53125 C 187.101562 367.507812 187.878906 373.253906 188.34375 376.660156 C 188.78125 379.898438 190.972656 382.726562 194.117188 383.65625 C 197.03125 384.523438 199.707031 383.601562 201.8125 382.261719 C 204.585938 380.496094 206.027344 377.242188 205.621094 373.972656 C 205.230469 370.917969 204.957031 365.867188 205.488281 358.121094 C 205.5625 357.027344 205.660156 355.871094 205.773438 354.664062 C 207.308594 337.832031 207.09375 298.890625 207.0625 295.441406 C 207.0625 295.273438 207.0625 295.109375 207.054688 294.941406 C 205.90625 272.933594 180.5625 277.632812 179.433594 291.152344 C 178.671875 300.265625 183.164062 337.234375 186.191406 360.53125 Z M 186.191406 360.53125 " fill-opacity="1" fill-rule="nonzero"/><path fill="#7fb39c" d="M 250.679688 360.53125 C 249.769531 367.507812 248.992188 373.253906 248.527344 376.660156 C 248.089844 379.898438 245.894531 382.726562 242.753906 383.65625 C 239.839844 384.523438 237.164062 383.601562 235.054688 382.261719 C 232.285156 380.496094 230.839844 377.242188 231.25 373.972656 C 231.640625 370.917969 231.914062 365.867188 231.382812 358.121094 C 234.667969 360.398438 241.140625 363.285156 250.679688 360.53125 Z M 186.191406 360.53125 C 187.101562 367.507812 187.878906 373.253906 188.34375 376.660156 C 188.78125 379.898438 190.972656 382.726562 194.117188 383.65625 C 197.03125 384.523438 199.707031 383.601562 201.8125 382.261719 C 204.585938 380.496094 206.027344 377.242188 205.621094 373.972656 C 205.230469 370.917969 204.957031 365.867188 205.488281 358.121094 C 202.203125 360.398438 195.730469 363.285156 186.191406 360.53125 Z M 186.191406 360.53125 " fill-opacity="1" fill-rule="nonzero"/><path fill="#403934" d="M 236.519531 369.417969 C 236.507812 369.417969 236.488281 369.417969 236.480469 369.417969 C 236.214844 369.398438 236.023438 369.171875 236.042969 368.90625 L 236.601562 361.726562 C 236.621094 361.460938 236.859375 361.253906 237.117188 361.292969 C 237.382812 361.308594 237.570312 361.539062 237.550781 361.804688 L 236.992188 368.980469 C 236.964844 369.226562 236.753906 369.417969 236.519531 369.417969 Z M 245.023438 368.992188 L 245.667969 362.65625 C 245.695312 362.402344 245.507812 362.164062 245.242188 362.136719 C 244.984375 362.109375 244.746094 362.296875 244.71875 362.5625 L 244.074219 368.894531 C 244.046875 369.152344 244.234375 369.390625 244.5 369.417969 C 244.519531 369.417969 244.53125 369.417969 244.546875 369.417969 C 244.796875 369.417969 244.996094 369.238281 245.023438 368.992188 Z M 245.308594 397.207031 C 245.335938 397.148438 248.203125 391.394531 259.460938 391.054688 C 259.726562 391.042969 259.925781 390.824219 259.917969 390.558594 C 259.90625 390.304688 259.699219 390.105469 259.441406 390.105469 C 259.441406 390.105469 259.433594 390.105469 259.421875 390.105469 C 247.539062 390.464844 244.566406 396.550781 244.445312 396.808594 C 244.328125 397.042969 244.433594 397.328125 244.671875 397.433594 C 244.738281 397.460938 244.804688 397.480469 244.871094 397.480469 C 245.050781 397.472656 245.222656 397.375 245.308594 397.207031 Z M 250.671875 404.402344 C 250.699219 404.34375 253.566406 398.589844 264.824219 398.25 C 265.089844 398.242188 265.289062 398.023438 265.277344 397.757812 C 265.269531 397.5 265.0625 397.300781 264.804688 397.300781 C 264.804688 397.300781 264.796875 397.300781 264.785156 397.300781 C 252.902344 397.660156 249.929688 403.746094 249.808594 404.003906 C 249.691406 404.242188 249.796875 404.523438 250.035156 404.628906 C 250.101562 404.65625 250.167969 404.675781 250.234375 404.675781 C 250.425781 404.675781 250.59375 404.582031 250.671875 404.402344 Z M 227.546875 306.636719 L 227.546875 342.457031 C 227.546875 343.691406 228.257812 344.800781 229.359375 345.339844 C 232.636719 346.925781 240.257812 349.632812 251.6875 347.6875 C 253.082031 347.449219 254.144531 346.308594 254.304688 344.90625 L 260.265625 292.898438 C 260.417969 291.589844 259.746094 290.324219 258.578125 289.707031 C 252.710938 286.59375 234.96875 279.730469 227.660156 305.753906 C 227.585938 306.027344 227.546875 306.332031 227.546875 306.636719 Z M 200.398438 369.417969 C 200.664062 369.398438 200.855469 369.171875 200.835938 368.90625 L 200.277344 361.726562 C 200.257812 361.460938 200.03125 361.261719 199.765625 361.292969 C 199.5 361.308594 199.308594 361.539062 199.328125 361.804688 L 199.886719 368.980469 C 199.90625 369.226562 200.117188 369.417969 200.363281 369.417969 C 200.371094 369.417969 200.390625 369.417969 200.398438 369.417969 Z M 192.371094 369.417969 C 192.625 369.390625 192.816406 369.160156 192.796875 368.894531 L 192.152344 362.5625 C 192.121094 362.308594 191.894531 362.117188 191.628906 362.136719 C 191.371094 362.164062 191.183594 362.390625 191.203125 362.65625 L 191.847656 368.992188 C 191.875 369.238281 192.074219 369.417969 192.320312 369.417969 C 192.339844 369.417969 192.359375 369.417969 192.371094 369.417969 Z M 192.199219 397.433594 C 192.4375 397.320312 192.539062 397.042969 192.425781 396.808594 C 192.304688 396.550781 189.332031 390.476562 177.449219 390.105469 C 177.230469 390.113281 176.964844 390.304688 176.953125 390.558594 C 176.945312 390.824219 177.152344 391.042969 177.410156 391.054688 C 188.667969 391.394531 191.535156 397.148438 191.5625 397.207031 C 191.648438 397.375 191.820312 397.480469 191.988281 397.480469 C 192.066406 397.472656 192.140625 397.460938 192.199219 397.433594 Z M 186.835938 404.628906 C 187.074219 404.515625 187.175781 404.242188 187.0625 404.003906 C 186.941406 403.746094 183.96875 397.671875 172.085938 397.300781 C 171.855469 397.308594 171.601562 397.5 171.589844 397.757812 C 171.582031 398.023438 171.789062 398.242188 172.046875 398.25 C 183.304688 398.589844 186.171875 404.34375 186.199219 404.402344 C 186.285156 404.574219 186.457031 404.675781 186.625 404.675781 C 186.703125 404.675781 186.769531 404.65625 186.835938 404.628906 Z M 209.207031 305.742188 C 201.898438 279.730469 184.160156 286.585938 178.292969 289.699219 C 177.125 290.316406 176.460938 291.578125 176.601562 292.890625 L 182.5625 344.894531 C 182.726562 346.300781 183.796875 347.441406 185.183594 347.675781 C 196.613281 349.613281 204.234375 346.917969 207.507812 345.332031 C 208.621094 344.792969 209.324219 343.679688 209.324219 342.445312 L 209.324219 306.625 C 209.332031 306.332031 209.285156 306.027344 209.207031 305.742188 Z M 209.207031 305.742188 " fill-opacity="1" fill-rule="nonzero"/><path fill="#7fb39c" d="M 213.148438 12.949219 C 213.148438 12.949219 219.898438 4.707031 229.125 9.4375 C 238.351562 14.164062 240.050781 22.765625 249.625 19.253906 C 259.203125 15.742188 270.707031 24.703125 266.960938 36.703125 C 263.210938 48.703125 262.480469 54.636719 272.902344 57.425781 C 283.324219 60.21875 283.078125 77.183594 268.421875 79.242188 C 268.421875 79.242188 269.875 92.210938 251.089844 91.851562 C 251.089844 91.851562 242.847656 106.394531 223.097656 97.546875 C 223.097656 97.546875 206.257812 106.273438 197.285156 94.273438 C 197.285156 94.273438 183.960938 99.96875 178.984375 88.9375 C 178.984375 88.9375 167.109375 89.421875 165.78125 75.125 C 164.453125 60.824219 178.015625 57.304688 178.015625 57.304688 C 178.015625 57.304688 163.960938 57.179688 166.503906 43.851562 C 169.046875 30.523438 187.832031 33.675781 188.800781 24.578125 C 189.769531 15.484375 200.789062 6.769531 213.148438 12.949219 Z M 213.148438 12.949219 " fill-opacity="1" fill-rule="nonzero"/><path fill="#c2d8ff" d="M 300.316406 191.289062 C 299.785156 193.121094 299.222656 194.828125 298.636719 196.425781 C 298.132812 197.761719 297.621094 199.023438 297.085938 200.203125 C 289.125 217.890625 277.496094 218.210938 271.742188 217.074219 C 270.507812 216.824219 269.457031 216.484375 268.792969 216.238281 C 268.707031 216.207031 268.628906 216.179688 268.554688 216.140625 C 268.355469 216.066406 268.25 216.007812 268.25 216.007812 C 268.25 216.007812 268.25 216.019531 268.25 216.027344 C 268.089844 215.960938 268.011719 215.925781 268.003906 215.925781 C 266.65625 223.234375 266.445312 231.722656 267.625 240.742188 C 269.105469 252.09375 272.617188 262.566406 277.550781 270.425781 C 278.21875 275.335938 278.691406 279.625 278.851562 282.75 C 278.917969 284.117188 278.484375 285.457031 277.636719 286.527344 C 272.125 293.589844 249.09375 320.488281 218.566406 320.488281 C 188.03125 320.488281 165.003906 293.589844 159.488281 286.527344 C 158.644531 285.457031 158.207031 284.117188 158.285156 282.75 C 159.148438 266.042969 168.886719 216.007812 168.886719 216.007812 C 168.886719 216.007812 146.988281 226.433594 136.8125 191.289062 C 126.625 156.140625 150.0625 156.789062 153.773438 136.023438 C 156.859375 118.804688 160.882812 113.960938 178.09375 101.363281 C 193.101562 90.359375 212.722656 86.125 217.484375 85.226562 C 218.199219 85.082031 218.929688 85.082031 219.640625 85.226562 C 224.40625 86.125 244.027344 90.359375 259.035156 101.363281 C 276.242188 113.960938 280.265625 118.804688 283.351562 136.023438 C 287.074219 156.789062 310.5 156.140625 300.316406 191.289062 Z M 300.316406 191.289062 " fill-opacity="1" fill-rule="nonzero"/><path fill="#d69a6c" d="M 241.683594 66.257812 C 239.632812 70.964844 235.636719 74.601562 231.601562 77.574219 C 230.792969 78.160156 229.976562 78.710938 229.160156 79.234375 C 229.929688 84.265625 231.714844 88.5 232.949219 90.976562 C 233.753906 92.589844 233.707031 94.507812 232.777344 96.058594 C 230.320312 100.140625 224.957031 107.410156 217.921875 107.410156 C 211.125 107.410156 206.226562 100.917969 203.863281 96.941406 C 202.925781 95.363281 202.832031 93.390625 203.703125 91.773438 C 205.839844 87.84375 206.550781 82.625 206.777344 79.148438 C 206.664062 79.082031 206.550781 79.023438 206.4375 78.957031 C 201.757812 76.347656 197.011719 73.035156 194.628906 67.964844 C 192.597656 63.609375 192.824219 57.941406 192.824219 52.773438 C 192.824219 36.664062 204.121094 23.601562 218.035156 23.601562 C 231.972656 23.601562 243.246094 36.664062 243.246094 52.773438 C 243.246094 57.617188 243.496094 62.109375 241.683594 66.257812 Z M 241.683594 66.257812 " fill-opacity="1" fill-rule="nonzero"/><path fill="#d69a6c" d="M 195.957031 57.351562 C 198.9375 60.644531 199.367188 65.117188 196.90625 67.339844 C 194.449219 69.558594 190.042969 68.6875 187.0625 65.390625 C 184.082031 62.097656 183.65625 57.625 186.113281 55.40625 C 188.574219 53.183594 192.976562 54.046875 195.957031 57.351562 Z M 239.5 57.351562 C 236.519531 60.644531 236.089844 65.117188 238.550781 67.339844 C 241.007812 69.558594 245.410156 68.6875 248.394531 65.390625 C 251.375 62.097656 251.800781 57.625 249.34375 55.40625 C 246.882812 53.183594 242.480469 54.046875 239.5 57.351562 Z M 239.5 57.351562 " fill-opacity="1" fill-rule="nonzero"/><path fill="#403934" d="M 207.644531 79.328125 C 211.078125 81.179688 214.382812 82.679688 218.253906 82.679688 C 222.0625 82.679688 225.515625 81.410156 228.828125 79.460938 C 227.195312 83.894531 223.078125 87.039062 218.253906 87.039062 C 213.386719 87.039062 209.238281 83.828125 207.644531 79.328125 Z M 201.132812 46.175781 L 208.429688 45.691406 C 209.609375 45.617188 210.507812 44.589844 210.425781 43.414062 C 210.339844 42.238281 209.324219 41.335938 208.144531 41.421875 L 200.847656 41.90625 C 199.667969 41.980469 198.765625 43.007812 198.851562 44.183594 C 198.929688 45.359375 199.953125 46.253906 201.132812 46.175781 Z M 231.640625 53.277344 C 231.640625 51.511719 230.214844 50.089844 228.449219 50.089844 C 226.683594 50.089844 225.261719 51.511719 225.261719 53.277344 C 225.261719 55.042969 226.683594 56.46875 228.449219 56.46875 C 230.214844 56.46875 231.640625 55.042969 231.640625 53.277344 Z M 209.570312 53.277344 C 209.570312 51.511719 208.144531 50.089844 206.378906 50.089844 C 204.613281 50.089844 203.191406 51.511719 203.191406 53.277344 C 203.191406 55.042969 204.613281 56.46875 206.378906 56.46875 C 208.136719 56.46875 209.570312 55.042969 209.570312 53.277344 Z M 229.53125 65.191406 C 229.359375 64.992188 229.066406 64.964844 228.867188 65.125 C 228.78125 65.191406 220.597656 71.800781 208.117188 67.804688 C 207.871094 67.726562 207.605469 67.859375 207.519531 68.109375 C 207.441406 68.355469 207.578125 68.621094 207.824219 68.707031 C 210.824219 69.664062 213.585938 70.035156 216.0625 70.035156 C 224.320312 70.035156 229.410156 65.914062 229.476562 65.859375 C 229.675781 65.695312 229.703125 65.390625 229.53125 65.191406 Z M 217.828125 63.027344 C 217.894531 63.058594 217.960938 63.074219 218.035156 63.074219 C 218.21875 63.074219 218.378906 62.980469 218.464844 62.808594 C 218.578125 62.574219 218.484375 62.289062 218.246094 62.175781 C 217.535156 61.832031 216.109375 60.863281 216.242188 60.09375 C 216.386719 59.269531 217.875 58.226562 218.777344 57.769531 C 219.015625 57.644531 219.101562 57.359375 218.984375 57.132812 C 218.863281 56.894531 218.578125 56.800781 218.351562 56.925781 C 218.066406 57.066406 215.578125 58.367188 215.304688 59.933594 C 215.019531 61.613281 217.542969 62.886719 217.828125 63.027344 Z M 224.597656 45.691406 L 231.894531 46.175781 C 233.070312 46.253906 234.097656 45.359375 234.171875 44.183594 C 234.25 43.007812 233.355469 41.980469 232.179688 41.90625 L 224.878906 41.421875 C 223.703125 41.34375 222.679688 42.238281 222.601562 43.414062 C 222.527344 44.589844 223.417969 45.617188 224.597656 45.691406 Z M 190.222656 57 C 188.164062 56.589844 186.359375 58.054688 186.285156 58.121094 C 186.085938 58.292969 186.058594 58.585938 186.21875 58.785156 C 186.390625 58.984375 186.683594 59.011719 186.882812 58.851562 C 186.902344 58.839844 188.421875 57.609375 190.035156 57.941406 C 191.039062 58.140625 191.90625 58.898438 192.597656 60.207031 C 192.683594 60.371094 192.84375 60.457031 193.015625 60.457031 C 193.089844 60.457031 193.167969 60.4375 193.242188 60.398438 C 193.472656 60.273438 193.566406 59.992188 193.441406 59.753906 C 192.617188 58.175781 191.523438 57.257812 190.222656 57 Z M 245.714844 57 C 244.414062 57.257812 243.332031 58.1875 242.488281 59.753906 C 242.363281 59.980469 242.449219 60.273438 242.679688 60.398438 C 242.753906 60.4375 242.832031 60.457031 242.90625 60.457031 C 243.078125 60.457031 243.238281 60.359375 243.324219 60.207031 C 244.027344 58.910156 244.878906 58.140625 245.886719 57.941406 C 247.511719 57.617188 249.027344 58.839844 249.039062 58.851562 C 249.238281 59.011719 249.542969 58.984375 249.703125 58.785156 C 249.863281 58.585938 249.84375 58.28125 249.636719 58.121094 C 249.578125 58.054688 247.777344 56.589844 245.714844 57 Z M 268.394531 215.5625 C 268.308594 215.535156 259.613281 212.753906 254.914062 201.710938 C 250.175781 190.59375 252.273438 178.851562 252.292969 178.738281 C 252.339844 178.480469 252.171875 178.234375 251.914062 178.1875 C 251.65625 178.140625 251.410156 178.308594 251.363281 178.566406 C 251.34375 178.691406 249.199219 190.691406 254.039062 202.082031 C 258.917969 213.550781 267.746094 216.351562 268.117188 216.464844 C 268.164062 216.484375 268.210938 216.484375 268.261719 216.484375 C 268.460938 216.484375 268.648438 216.351562 268.714844 216.152344 C 268.78125 215.90625 268.640625 215.640625 268.394531 215.5625 Z M 274.742188 173.792969 C 274.488281 173.742188 274.238281 173.933594 274.203125 174.191406 C 274.191406 174.265625 273.035156 181.480469 267.128906 182.847656 C 261.179688 184.226562 257.136719 180.257812 257.097656 180.21875 C 256.917969 180.039062 256.613281 180.027344 256.421875 180.21875 C 256.234375 180.398438 256.234375 180.703125 256.421875 180.890625 C 256.574219 181.042969 259.667969 184.101562 264.566406 184.101562 C 265.441406 184.101562 266.363281 184.007812 267.339844 183.777344 C 273.878906 182.269531 275.085938 174.664062 275.132812 174.332031 C 275.179688 174.074219 275 173.828125 274.742188 173.792969 Z M 185.460938 179.050781 C 185.203125 179.097656 185.03125 179.34375 185.078125 179.601562 C 185.097656 179.714844 187.195312 191.449219 182.460938 202.574219 C 177.761719 213.617188 169.066406 216.398438 168.980469 216.425781 C 168.734375 216.503906 168.589844 216.769531 168.667969 217.015625 C 168.734375 217.226562 168.914062 217.347656 169.125 217.347656 C 169.171875 217.347656 169.21875 217.339844 169.265625 217.328125 C 169.636719 217.214844 178.464844 214.40625 183.34375 202.945312 C 188.191406 191.554688 186.046875 179.542969 186.019531 179.429688 C 185.960938 179.175781 185.714844 179.003906 185.460938 179.050781 Z M 172.796875 184.964844 C 177.695312 184.964844 180.789062 181.90625 180.941406 181.757812 C 181.121094 181.566406 181.121094 181.273438 180.941406 181.082031 C 180.75 180.902344 180.457031 180.902344 180.265625 181.082031 C 180.230469 181.121094 176.214844 185.089844 170.234375 183.710938 C 164.328125 182.34375 163.171875 175.128906 163.164062 175.054688 C 163.125 174.796875 162.886719 174.617188 162.621094 174.65625 C 162.363281 174.691406 162.183594 174.929688 162.222656 175.195312 C 162.269531 175.519531 163.476562 183.125 170.015625 184.640625 C 171.003906 184.871094 171.921875 184.964844 172.796875 184.964844 Z M 239.261719 92.097656 C 238.996094 92.109375 238.796875 92.324219 238.796875 92.582031 C 238.804688 92.761719 239.269531 110.210938 235.386719 117.105469 C 234.847656 118.0625 234.125 118.566406 233.15625 118.660156 C 233.042969 118.671875 232.9375 118.679688 232.824219 118.679688 C 227.660156 118.679688 218.804688 108.226562 218.710938 108.125 C 218.625 108.019531 218.398438 107.953125 218.253906 107.953125 C 218.113281 107.953125 217.980469 108.007812 217.894531 108.125 C 217.800781 108.238281 208.527344 119.15625 203.445312 118.671875 C 202.480469 118.574219 201.757812 118.074219 201.214844 117.113281 C 197.34375 110.222656 197.808594 92.761719 197.808594 92.589844 C 197.816406 92.324219 197.609375 92.109375 197.34375 92.109375 C 197.105469 92.109375 196.859375 92.308594 196.859375 92.574219 C 196.839844 93.304688 196.386719 110.46875 200.382812 117.589844 C 201.074219 118.824219 202.070312 119.507812 203.351562 119.621094 C 203.484375 119.628906 203.617188 119.640625 203.75 119.640625 C 206.894531 119.640625 211.039062 116.382812 214.152344 113.429688 L 214.152344 320.34375 C 214.152344 320.609375 214.363281 320.820312 214.628906 320.820312 C 214.894531 320.820312 215.105469 320.609375 215.105469 320.34375 L 215.105469 112.5 C 216.59375 111.019531 217.75 109.726562 218.292969 109.109375 C 218.890625 109.804688 220.257812 111.332031 221.996094 113.011719 L 221.996094 320.335938 C 221.996094 320.601562 222.203125 320.808594 222.46875 320.808594 C 222.734375 320.808594 222.945312 320.601562 222.945312 320.335938 L 222.945312 113.90625 C 226.132812 116.847656 230.214844 119.90625 233.234375 119.609375 C 234.515625 119.488281 235.511719 118.804688 236.203125 117.578125 C 240.210938 110.457031 239.753906 93.285156 239.734375 92.5625 C 239.734375 92.296875 239.535156 92.109375 239.261719 92.097656 Z M 215.824219 127.148438 C 215.824219 125.773438 216.945312 124.652344 218.320312 124.652344 C 219.699219 124.652344 220.816406 125.773438 220.816406 127.148438 C 220.816406 128.523438 219.699219 129.644531 218.320312 129.644531 C 216.945312 129.65625 215.824219 128.535156 215.824219 127.148438 Z M 216.773438 127.148438 C 216.773438 128.003906 217.46875 128.695312 218.320312 128.695312 C 219.175781 128.695312 219.867188 128.003906 219.867188 127.148438 C 219.867188 126.292969 219.175781 125.601562 218.320312 125.601562 C 217.46875 125.601562 216.773438 126.292969 216.773438 127.148438 Z M 215.824219 155.621094 C 215.824219 154.242188 216.945312 153.125 218.320312 153.125 C 219.699219 153.125 220.816406 154.242188 220.816406 155.621094 C 220.816406 156.996094 219.699219 158.117188 218.320312 158.117188 C 216.945312 158.125 215.824219 156.996094 215.824219 155.621094 Z M 216.773438 155.621094 C 216.773438 156.476562 217.46875 157.167969 218.320312 157.167969 C 219.175781 157.167969 219.867188 156.476562 219.867188 155.621094 C 219.867188 154.765625 219.175781 154.074219 218.320312 154.074219 C 217.46875 154.074219 216.773438 154.765625 216.773438 155.621094 Z M 221.054688 184.089844 C 221.054688 185.46875 219.933594 186.589844 218.558594 186.589844 C 217.183594 186.589844 216.0625 185.46875 216.0625 184.089844 C 216.0625 182.714844 217.183594 181.59375 218.558594 181.59375 C 219.933594 181.59375 221.054688 182.714844 221.054688 184.089844 Z M 220.105469 184.089844 C 220.105469 183.238281 219.414062 182.542969 218.558594 182.542969 C 217.703125 182.542969 217.011719 183.238281 217.011719 184.089844 C 217.011719 184.945312 217.703125 185.640625 218.558594 185.640625 C 219.414062 185.648438 220.105469 184.945312 220.105469 184.089844 Z M 221.054688 212.5625 C 221.054688 213.941406 219.933594 215.058594 218.558594 215.058594 C 217.183594 215.058594 216.0625 213.941406 216.0625 212.5625 C 216.0625 211.1875 217.183594 210.066406 218.558594 210.066406 C 219.933594 210.066406 221.054688 211.1875 221.054688 212.5625 Z M 220.105469 212.5625 C 220.105469 211.707031 219.414062 211.015625 218.558594 211.015625 C 217.703125 211.015625 217.011719 211.707031 217.011719 212.5625 C 217.011719 213.417969 217.703125 214.109375 218.558594 214.109375 C 219.414062 214.109375 220.105469 213.417969 220.105469 212.5625 Z M 220.941406 247.214844 C 220.941406 248.589844 219.820312 249.710938 218.445312 249.710938 C 217.070312 249.710938 215.949219 248.589844 215.949219 247.214844 C 215.949219 245.839844 217.070312 244.71875 218.445312 244.71875 C 219.820312 244.707031 220.941406 245.828125 220.941406 247.214844 Z M 219.992188 247.214844 C 219.992188 246.359375 219.300781 245.667969 218.445312 245.667969 C 217.589844 245.667969 216.898438 246.359375 216.898438 247.214844 C 216.898438 248.070312 217.589844 248.761719 218.445312 248.761719 C 219.289062 248.761719 219.992188 248.070312 219.992188 247.214844 Z M 215.9375 275.675781 C 215.9375 274.300781 217.058594 273.179688 218.433594 273.179688 C 219.8125 273.179688 220.933594 274.300781 220.933594 275.675781 C 220.933594 277.054688 219.8125 278.175781 218.433594 278.175781 C 217.058594 278.183594 215.9375 277.0625 215.9375 275.675781 Z M 216.886719 275.675781 C 216.886719 276.53125 217.582031 277.226562 218.433594 277.226562 C 219.289062 277.226562 219.984375 276.53125 219.984375 275.675781 C 219.984375 274.824219 219.289062 274.128906 218.433594 274.128906 C 217.582031 274.128906 216.886719 274.824219 216.886719 275.675781 Z M 221.066406 304.148438 C 221.066406 305.523438 219.945312 306.644531 218.566406 306.644531 C 217.191406 306.644531 216.070312 305.523438 216.070312 304.148438 C 216.070312 302.773438 217.191406 301.652344 218.566406 301.652344 C 219.945312 301.652344 221.066406 302.773438 221.066406 304.148438 Z M 220.117188 304.148438 C 220.117188 303.292969 219.421875 302.601562 218.566406 302.601562 C 217.714844 302.601562 217.019531 303.292969 217.019531 304.148438 C 217.019531 305.003906 217.714844 305.695312 218.566406 305.695312 C 219.421875 305.707031 220.117188 305.003906 220.117188 304.148438 Z M 278.246094 120.476562 C 278.085938 120.265625 277.78125 120.238281 277.582031 120.398438 C 277.4375 120.511719 273.964844 123.339844 270.574219 128.925781 C 270.441406 129.152344 270.507812 129.4375 270.738281 129.578125 C 270.8125 129.625 270.898438 129.644531 270.984375 129.644531 C 271.144531 129.644531 271.296875 129.558594 271.390625 129.417969 C 274.695312 123.988281 278.152344 121.167969 278.1875 121.140625 C 278.378906 120.976562 278.40625 120.683594 278.246094 120.476562 Z M 165.953125 129.65625 C 166.039062 129.65625 166.125 129.636719 166.199219 129.589844 C 166.425781 129.457031 166.492188 129.160156 166.359375 128.933594 C 162.960938 123.351562 159.5 120.523438 159.347656 120.410156 C 159.148438 120.246094 158.84375 120.273438 158.683594 120.484375 C 158.519531 120.691406 158.550781 120.988281 158.757812 121.148438 C 158.796875 121.175781 162.25 123.996094 165.554688 129.425781 C 165.628906 129.570312 165.792969 129.65625 165.953125 129.65625 Z M 165.953125 129.65625 " fill-opacity="1" fill-rule="nonzero"/><path fill="#7fb39c" d="M 245.992188 48.339844 C 232.835938 45.769531 224.082031 31.910156 221.320312 26.296875 C 220.882812 25.40625 219.566406 25.527344 219.300781 26.488281 C 218.445312 29.488281 217.714844 33.304688 217.933594 37.167969 C 218.019531 38.648438 216.945312 39.949219 215.484375 40.140625 C 210.339844 40.824219 199.050781 43.128906 190.308594 50.648438 C 190.308594 50.648438 184.195312 17.316406 221.519531 20.46875 C 221.519531 20.46875 221.234375 21.058594 220.816406 22.0625 C 247.660156 23.773438 245.992188 48.339844 245.992188 48.339844 Z M 245.992188 48.339844 " fill-opacity="1" fill-rule="nonzero"/><path fill="#d69a6c" d="M 261.492188 180.398438 C 257.4375 181.367188 253.1875 180.074219 250.042969 177.332031 C 248.15625 175.679688 245.867188 173.210938 243.5625 169.585938 C 237.902344 160.699219 232.085938 157.625 236.214844 153.589844 C 240.34375 149.554688 244.777344 161.34375 248.011719 161.828125 C 251.25 162.3125 250.109375 150.027344 250.195312 143.972656 C 250.28125 137.914062 250.195312 132.171875 252.863281 130.964844 C 255.53125 129.75 256.414062 134.441406 257.875 154.074219 C 257.875 154.074219 265.628906 132.503906 269.589844 131.449219 C 273.546875 130.394531 271.363281 139.292969 264.898438 156.257812 C 264.898438 156.257812 277.097656 144.617188 281.054688 143.410156 C 283.988281 142.507812 285.554688 146.507812 270.71875 160.375 C 270.71875 160.375 281.949219 155.382812 284.453125 156.742188 C 284.453125 156.742188 288.394531 158.839844 274.535156 166.273438 C 273.5 166.824219 272.703125 167.753906 272.339844 168.863281 C 271.316406 172.035156 268.382812 178.746094 261.492188 180.398438 Z M 175.871094 181.261719 C 179.925781 182.230469 184.179688 180.941406 187.320312 178.195312 C 189.207031 176.542969 191.496094 174.074219 193.804688 170.449219 C 199.460938 161.5625 205.277344 158.488281 201.148438 154.453125 C 197.03125 150.410156 192.589844 162.207031 189.351562 162.691406 C 186.125 163.175781 187.253906 150.890625 187.167969 144.835938 C 187.082031 138.777344 187.167969 133.035156 184.5 131.828125 C 181.832031 130.613281 180.949219 135.304688 179.488281 154.9375 C 179.488281 154.9375 171.734375 133.367188 167.777344 132.3125 C 163.816406 131.257812 166 140.15625 172.464844 157.121094 C 172.464844 157.121094 160.265625 145.480469 156.308594 144.273438 C 153.375 143.375 151.808594 147.371094 166.644531 161.242188 C 166.644531 161.242188 155.417969 156.246094 152.910156 157.605469 C 152.910156 157.605469 148.972656 159.703125 162.828125 167.136719 C 163.863281 167.6875 164.660156 168.617188 165.023438 169.726562 C 166.058594 172.910156 168.992188 179.609375 175.871094 181.261719 Z M 175.871094 181.261719 " fill-opacity="1" fill-rule="nonzero"/><path fill="#403934" d="M 257.382812 167.628906 C 257.203125 167.628906 257.019531 167.523438 256.945312 167.34375 C 255.445312 163.824219 247.992188 162.304688 247.917969 162.292969 C 247.660156 162.246094 247.492188 161.992188 247.546875 161.734375 C 247.59375 161.476562 247.851562 161.308594 248.109375 161.363281 C 248.429688 161.429688 256.128906 162.996094 257.828125 166.976562 C 257.933594 167.210938 257.820312 167.496094 257.582031 167.601562 C 257.503906 167.621094 257.449219 167.628906 257.382812 167.628906 Z M 180.417969 168.207031 C 181.917969 164.6875 189.371094 163.167969 189.445312 163.15625 C 189.703125 163.109375 189.875 162.855469 189.816406 162.597656 C 189.769531 162.339844 189.511719 162.171875 189.257812 162.226562 C 188.933594 162.292969 181.234375 163.859375 179.535156 167.839844 C 179.433594 168.074219 179.546875 168.359375 179.78125 168.464844 C 179.839844 168.492188 179.90625 168.503906 179.972656 168.503906 C 180.171875 168.492188 180.34375 168.390625 180.417969 168.207031 Z M 180.417969 168.207031 " fill-opacity="1" fill-rule="nonzero"/><path fill="#403934" d="M 337.636719 248.808594 L 335.179688 292.441406 C 334.867188 298.023438 330.652344 302.601562 325.109375 303.359375 L 277.601562 309.882812 C 272.273438 310.613281 267.140625 307.613281 265.15625 302.609375 L 248.886719 261.550781 C 246.09375 254.507812 250.640625 246.703125 258.152344 245.675781 L 268.164062 244.300781 C 267.957031 243.125 267.777344 241.9375 267.625 240.742188 C 266.445312 231.730469 266.65625 223.234375 268.003906 215.925781 C 268.003906 215.925781 268.089844 215.960938 268.25 216.027344 C 268.335938 216.066406 268.429688 216.105469 268.554688 216.140625 C 268.628906 216.179688 268.707031 216.207031 268.792969 216.238281 C 269.457031 216.484375 270.507812 216.824219 271.742188 217.074219 C 271.078125 220.757812 270.707031 224.753906 270.691406 228.957031 C 270.652344 232.605469 270.878906 236.390625 271.382812 240.246094 C 271.535156 241.441406 271.714844 242.621094 271.921875 243.789062 L 312.125 238.261719 C 312.027344 237.179688 311.90625 236.089844 311.761719 234.988281 C 311.335938 231.691406 310.71875 228.503906 309.960938 225.457031 C 311.117188 224.90625 312.292969 224.324219 313.472656 223.726562 C 314.34375 227.136719 315.046875 230.742188 315.53125 234.492188 C 315.671875 235.585938 315.796875 236.667969 315.902344 237.742188 L 324.386719 236.574219 C 331.667969 235.574219 338.046875 241.472656 337.636719 248.808594 Z M 337.636719 248.808594 " fill-opacity="1" fill-rule="nonzero"/></svg>